<svg width="31" height="30" viewBox="0 0 31 30" fill="none" xmlns="http://www.w3.org/2000/svg">
<path d="M22.686 15.6943C22.6743 13.6963 23.5795 12.1904 25.4077 11.0801C24.3852 9.61523 22.8383 8.80957 20.7993 8.6543C18.8686 8.50195 16.7563 9.7793 15.9828 9.7793C15.1655 9.7793 13.2963 8.70703 11.8256 8.70703C8.79047 8.75391 5.56488 11.127 5.56488 15.9551C5.56488 17.3818 5.82562 18.8555 6.34711 20.373C7.04437 22.3711 9.55804 27.2666 12.1801 27.1875C13.5512 27.1553 14.5209 26.2148 16.3051 26.2148C18.0366 26.2148 18.933 27.1875 20.4623 27.1875C23.1078 27.1494 25.3813 22.6992 26.0434 20.6953C22.4955 19.0225 22.686 15.7969 22.686 15.6943ZM19.6069 6.75879C21.0922 4.99512 20.9575 3.38965 20.9135 2.8125C19.601 2.88867 18.0834 3.70605 17.2192 4.71094C16.267 5.78906 15.7075 7.12207 15.8276 8.625C17.2455 8.7334 18.5405 8.00391 19.6069 6.75879Z" fill="white"/>
</svg>
