<svg width="79" height="81" viewBox="0 0 79 81" fill="none" xmlns="http://www.w3.org/2000/svg">
<g clip-path="url(#clip0_2735_3235)">
<path d="M77.9446 69.8517V75.1878C77.945 75.9512 77.7943 76.7072 77.5012 77.4125C77.208 78.1179 76.7782 78.7588 76.2362 79.2986C75.6942 79.8384 75.0507 80.2665 74.3425 80.5584C73.6343 80.8504 72.8753 81.0005 72.1088 81.0001H6.97044C5.42281 80.9997 3.93867 80.3872 2.84433 79.2973C1.74999 78.2074 1.13503 76.7292 1.13464 75.1878V68.8665C1.13464 68.7862 1.13464 68.7059 1.14616 68.627C1.20561 67.9507 1.5175 67.3211 2.02025 66.8626C2.523 66.4041 3.18008 66.15 3.86176 66.1504H74.2283C75.1758 66.1505 76.0875 66.511 76.7772 67.1582C77.4668 67.8053 77.8823 68.6903 77.9388 69.6323C77.9432 69.7054 77.9446 69.7786 77.9446 69.8517Z" fill="#FEA70E"/>
<path d="M77.9388 69.6323C75.7157 73.8828 70.8287 68.1638 61.6798 75.3298C61.4033 75.5463 61.1326 75.7414 60.8663 75.9178C57.9001 77.8881 55.6165 77.3991 53.3977 76.2046C49.1716 73.9402 45.1774 69.1361 37.1271 73.9287C36.3611 74.3892 35.5704 74.8076 34.7585 75.1821C29.5174 77.5827 26.7284 76.0741 23.6859 74.4106C20.7227 72.7886 17.5247 71.0147 11.6025 72.5391C6.43337 73.8685 2.84233 73.5817 1.13464 71.4062V68.8665C1.13445 68.5098 1.20486 68.1565 1.34185 67.8269C1.47883 67.4972 1.6797 67.1977 1.93298 66.9455C2.18625 66.6932 2.48696 66.4932 2.81791 66.3568C3.14887 66.2203 3.50358 66.1502 3.86176 66.1504H74.2283C75.1758 66.1505 76.0875 66.511 76.7772 67.1581C77.4668 67.8053 77.8823 68.6903 77.9388 69.6323Z" fill="#E99004"/>
<path d="M78.1491 65.5079C78.1088 65.604 78.067 65.6987 78.021 65.7947C75.8367 70.3536 70.9425 64.4008 61.6798 71.6557C61.4034 71.8718 61.1322 72.0683 60.8663 72.2451C57.9002 74.2141 55.6165 73.7265 53.3977 72.5319C49.1717 70.2676 45.1775 65.4635 37.1271 70.2561C36.3615 70.7171 35.5707 71.1356 34.7585 71.5095C29.5203 73.9 26.7255 72.3957 23.683 70.7322C20.7198 69.1103 17.5218 67.3363 11.5996 68.8608C6.0446 70.2948 2.31245 69.8517 0.780428 67.2102C0.316789 66.4128 0.0604913 65.4161 0.00289645 64.2101C-0.221724 59.0475 6.48232 56.8605 6.48232 56.8605C6.48232 56.8605 56.7094 60.0241 65.5948 56.8605C74.3349 53.7529 80.5796 59.8104 78.1491 65.5079Z" fill="#8AC406"/>
<path d="M23.6859 70.735C20.7227 69.1131 17.5247 67.3391 11.6025 68.8635C6.0475 70.2976 2.31535 69.8545 0.783325 67.2129C1.69476 67.9945 3.14328 68.5495 5.42691 68.5495C13.0338 68.5495 15.8199 63.5303 19.2079 65.4748C21.0538 66.5404 22.2302 68.7359 23.6859 70.735Z" fill="#BFEE21"/>
<path d="M53.3976 72.5347C49.1716 70.2703 45.1774 65.4662 37.1271 70.2588C36.3614 70.7199 35.5707 71.1383 34.7585 71.5122C38.0169 68.5595 41.4683 64.6373 44.7325 64.95C48.6677 65.3257 50.9369 69.602 53.3976 72.5347Z" fill="#BFEE21"/>
<path d="M78.149 65.508C78.1087 65.604 78.067 65.6987 78.0209 65.7948C75.8366 70.3536 70.9425 64.4009 61.6798 71.6558C61.4033 71.8718 61.1322 72.0683 60.8663 72.2452C62.9325 69.2136 64.9339 64.8956 67.6337 64.5773C71.1556 64.1585 75.6811 68.1853 78.149 65.508Z" fill="#BFEE21"/>
<path d="M17.4758 66.301C25.6276 66.301 32.2359 63.5305 32.2359 60.113C32.2359 56.6955 25.6276 53.925 17.4758 53.925C9.32397 53.925 2.71564 56.6955 2.71564 60.113C2.71564 63.5305 9.32397 66.301 17.4758 66.301Z" fill="#9051A8"/>
<path d="M17.4758 64.725C24.2439 64.725 29.7305 62.6768 29.7305 60.1503C29.7305 57.6238 24.2439 55.5757 17.4758 55.5757C10.7076 55.5757 5.22101 57.6238 5.22101 60.1503C5.22101 62.6768 10.7076 64.725 17.4758 64.725Z" fill="#BA7CD8"/>
<path d="M17.4757 62.9996C23.0009 62.9996 27.48 61.6564 27.48 59.9996C27.48 58.3427 23.0009 56.9995 17.4757 56.9995C11.9505 56.9995 7.4715 58.3427 7.4715 59.9996C7.4715 61.6564 11.9505 62.9996 17.4757 62.9996Z" fill="#CD9BEA"/>
<path d="M17.4757 62.0246C21.2053 62.0246 24.2287 61.118 24.2287 59.9997C24.2287 58.8814 21.2053 57.9749 17.4757 57.9749C13.7461 57.9749 10.7227 58.8814 10.7227 59.9997C10.7227 61.118 13.7461 62.0246 17.4757 62.0246Z" fill="#E8C7FF"/>
<path d="M59.7216 66.9004C67.8733 66.9004 74.4817 64.1299 74.4817 60.7124C74.4817 57.2949 67.8733 54.5244 59.7216 54.5244C51.5698 54.5244 44.9614 57.2949 44.9614 60.7124C44.9614 64.1299 51.5698 66.9004 59.7216 66.9004Z" fill="#9051A8"/>
<path d="M59.7215 65.3244C66.4897 65.3244 71.9763 63.2762 71.9763 60.7497C71.9763 58.2232 66.4897 56.175 59.7215 56.175C52.9534 56.175 47.4668 58.2232 47.4668 60.7497C47.4668 63.2762 52.9534 65.3244 59.7215 65.3244Z" fill="#BA7CD8"/>
<path d="M59.7216 63.6007C65.2468 63.6007 69.7258 62.2575 69.7258 60.6006C69.7258 58.9437 65.2468 57.6006 59.7216 57.6006C54.1964 57.6006 49.7173 58.9437 49.7173 60.6006C49.7173 62.2575 54.1964 63.6007 59.7216 63.6007Z" fill="#CD9BEA"/>
<path d="M59.7216 62.6255C63.4511 62.6255 66.4746 61.7189 66.4746 60.6006C66.4746 59.4823 63.4511 58.5757 59.7216 58.5757C55.992 58.5757 52.9686 59.4823 52.9686 60.6006C52.9686 61.7189 55.992 62.6255 59.7216 62.6255Z" fill="#E8C7FF"/>
<path d="M77.72 53.4747C77.72 57.4356 74.9843 60.645 71.6106 60.645H6.64072C5.01366 60.645 3.53491 59.8979 2.44061 58.6818C1.26567 57.3739 0.532778 55.5269 0.532778 53.4747C0.532455 53.0658 0.562293 52.6575 0.622051 52.2529C0.816247 50.8374 1.40485 49.5045 2.3211 48.4053C3.42692 47.1075 4.95463 46.3044 6.64072 46.3044H71.6106C74.3205 46.3044 76.6185 48.3752 77.4176 51.2419C77.6192 51.9692 77.7209 52.7203 77.72 53.4747Z" fill="#864C17"/>
<path d="M77.4176 51.2419C74.4846 51.3968 70.0238 50.1133 63.5199 56.1177C63.232 56.3863 62.9464 56.6296 62.6632 56.8476C59.5372 59.2941 57.1327 58.6875 54.7943 57.2104C50.3437 54.3997 46.1349 48.434 37.6598 54.3853C36.8596 54.9525 36.0264 55.4721 35.1645 55.9413C29.6455 58.9084 26.7024 57.0412 23.5016 54.9762C20.3814 52.9685 17.0121 50.76 10.7731 52.653C6.09784 54.0698 2.64935 54.0082 0.629211 52.2515C0.823408 50.836 1.41202 49.5031 2.32826 48.4039C3.43408 47.1061 4.96179 46.303 6.64788 46.303H71.6106C74.3204 46.3044 76.6184 48.3752 77.4176 51.2419Z" fill="#6C380A"/>
<path d="M71.5098 50.3354C71.2881 53.5779 69.4335 57.5143 66.9224 61.045C66.1009 62.1987 65.2135 63.3043 64.2644 64.3562C59.5603 69.5662 53.9304 72.6623 51.8152 68.6326C50.9383 66.9562 49.6756 65.1694 48.1997 63.3854C47.9876 63.1301 47.773 62.8739 47.5561 62.6167C44.348 58.8437 40.3812 55.1467 37.5245 52.6299L36.8607 52.0477C34.9961 50.4258 33.7448 49.4248 33.7448 49.4248C37.0565 40.5752 67.1801 38.3998 71.0202 47.0256C71.3468 47.7882 71.52 48.6073 71.5299 49.4363C71.5392 49.7362 71.5325 50.0363 71.5098 50.3354Z" fill="#FFD418"/>
<path d="M71.5098 50.3355C68.9843 50.4344 65.7503 51.0697 61.6798 54.2619C61.4033 54.4785 61.1326 54.6735 60.8663 54.8499C57.9001 56.8203 55.6165 56.3313 53.3976 55.1367C49.2436 52.9082 45.3084 48.2231 37.5245 52.63C35.297 50.6696 33.7419 49.4248 33.7419 49.4248C37.0536 40.5752 67.1772 38.3998 71.0173 47.0256C71.4464 47.9893 71.5933 49.1093 71.5098 50.3355Z" fill="#FAB204"/>
<path d="M78.1491 45.8584C78.1088 45.9531 78.067 46.0492 78.021 46.1453C75.8367 50.7041 70.9425 44.7499 61.6798 52.0063C61.4034 52.2228 61.1327 52.4178 60.8663 52.5942C57.9002 54.5646 55.6165 54.0756 53.3977 52.881C49.1717 50.6167 45.1775 45.8111 37.1271 50.6052C36.3611 51.0657 35.5704 51.4841 34.7585 51.8586C29.5203 54.2491 26.7255 52.7448 23.683 51.0799C20.7198 49.4594 17.5218 47.6854 11.5996 49.2156C6.0446 50.6496 2.31245 50.2065 0.780428 47.565C0.316789 46.7676 0.0604913 45.771 0.00289645 44.5649C-0.221724 39.4023 6.48232 37.2154 6.48232 37.2154C6.48232 37.2154 56.7094 40.3775 65.5948 37.2154C74.3349 34.102 80.5796 40.1609 78.1491 45.8584Z" fill="#8AC406"/>
<path d="M79 31.9494C79 33.1429 78.524 34.2875 77.6766 35.1315C76.8293 35.9754 75.68 36.4495 74.4817 36.4495H5.05107C4.45767 36.4497 3.87004 36.3334 3.32176 36.1074C2.77349 35.8813 2.27532 35.5498 1.85572 35.1319C1.43611 34.714 1.10331 34.2178 0.876305 33.6718C0.649306 33.1257 0.532565 32.5405 0.532754 31.9494C0.521855 25.0213 2.78226 18.2791 6.97042 12.7474C7.87844 11.5502 8.86907 10.4174 9.93512 9.35726C12.9101 6.38724 16.4448 4.03172 20.3363 2.42593C24.2278 0.820152 28.3994 -0.00426489 32.6117 1.65911e-05H46.9197C51.1334 -0.00356674 55.3065 0.820373 59.2002 2.4247C63.0939 4.02902 66.6318 6.38224 69.6114 9.34971C72.591 12.3172 74.954 15.8407 76.565 19.7186C78.176 23.5965 79.0034 27.7527 79 31.9494Z" fill="#FEA70E"/>
<path d="M79 31.9494C79 33.1429 78.524 34.2875 77.6766 35.1314C76.8293 35.9753 75.68 36.4495 74.4817 36.4495H5.05107C4.45767 36.4496 3.87004 36.3334 3.32176 36.1073C2.77349 35.8812 2.27532 35.5497 1.85572 35.1318C1.43611 34.7139 1.10331 34.2178 0.876305 33.6717C0.649306 33.1256 0.532565 32.5404 0.532754 31.9494C0.521855 25.0213 2.78226 18.279 6.97042 12.7473C6.96034 19.1174 12.3109 27.5827 39.4655 29.6248C62.1319 31.3299 72.5062 26.5674 77.2218 21.4377C78.4027 24.8174 79.0038 28.3709 79 31.9494Z" fill="#E99004"/>
<path d="M73.5026 39.9372C73.5026 40.882 73.1258 41.788 72.455 42.4561C71.7843 43.1241 70.8746 43.4994 69.926 43.4994H8.25194C7.30335 43.4994 6.39362 43.1241 5.72287 42.4561C5.05212 41.788 4.67529 40.882 4.67529 39.9372C4.67529 38.9925 5.05212 38.0864 5.72287 37.4183C6.39362 36.7503 7.30335 36.375 8.25194 36.375H69.926C70.8746 36.375 71.7843 36.7503 72.455 37.4183C73.1258 38.0864 73.5026 38.9925 73.5026 39.9372Z" fill="#B62A08"/>
<path d="M73.5026 39.9371C73.5026 40.8819 73.1257 41.7879 72.455 42.456C71.7842 43.124 70.8745 43.4993 69.9259 43.4993H8.25191C7.88814 43.5001 7.52638 43.4455 7.17921 43.3373C6.96719 42.797 6.89073 42.2134 6.95647 41.6371C7.0222 41.0607 7.22814 40.5091 7.55641 40.0299C7.88469 39.5508 8.32538 39.1587 8.84027 38.8876C9.35515 38.6166 9.92867 38.4747 10.5111 38.4744H72.1851C72.5485 38.4741 72.9097 38.5293 73.2564 38.6378C73.4193 39.0518 73.5028 39.4925 73.5026 39.9371Z" fill="#E64805"/>
<path d="M23.6859 51.084C20.7227 49.4635 17.5247 47.6896 11.6025 49.2198C6.0475 50.6538 2.31535 50.2107 0.783325 47.5691C1.69476 48.3507 3.14328 48.9057 5.42691 48.9057C13.0338 48.9057 15.8199 43.8864 19.2079 45.831C21.0538 46.8937 22.2302 49.0864 23.6859 51.084Z" fill="#BFEE21"/>
<path d="M53.3976 52.8853C49.1716 50.6209 45.1774 45.8154 37.1271 50.6094C36.3611 51.0699 35.5704 51.4883 34.7585 51.8628C38.0169 48.9101 41.4683 44.9879 44.7325 45.3005C48.6677 45.6748 50.9369 49.9512 53.3976 52.8853Z" fill="#BFEE21"/>
<path d="M78.149 45.8585C78.1087 45.9531 78.067 46.0492 78.0209 46.1453C75.8366 50.7042 70.9425 44.75 61.6798 52.0063C61.4033 52.2229 61.1326 52.4179 60.8663 52.5943C62.9325 49.5627 64.9339 45.2447 67.6337 44.9264C71.1556 44.5076 75.6811 48.5359 78.149 45.8585Z" fill="#BFEE21"/>
<path d="M27.0393 4.68807C27.0393 5.16418 25.9263 5.54851 24.5541 5.54851C23.1819 5.54851 22.0689 5.16275 22.0689 4.68807C22.0689 4.2134 23.1819 3.82764 24.5541 3.82764C25.9263 3.82764 27.0393 4.21196 27.0393 4.68807Z" fill="#FFE68E"/>
<path d="M42.6274 2.0621C42.6274 2.5382 41.5144 2.92253 40.1422 2.92253C38.77 2.92253 37.657 2.53534 37.657 2.0621C37.657 1.58886 38.77 1.20166 40.1422 1.20166C41.5144 1.20166 42.6274 1.58599 42.6274 2.0621Z" fill="#FFE68E"/>
<path d="M55.5042 5.84947C56.8767 5.84947 57.9894 5.4636 57.9894 4.9876C57.9894 4.5116 56.8767 4.12573 55.5042 4.12573C54.1317 4.12573 53.019 4.5116 53.019 4.9876C53.019 5.4636 54.1317 5.84947 55.5042 5.84947Z" fill="#FFE68E"/>
<path d="M67.2521 9.48763C67.2521 9.96374 66.1391 10.3481 64.7669 10.3481C63.3947 10.3481 62.2817 9.96231 62.2817 9.48763C62.2817 9.01296 63.3947 8.6272 64.7669 8.6272C66.1391 8.6272 67.2521 9.01153 67.2521 9.48763Z" fill="#FFE68E"/>
<path d="M44.2847 8.32482C45.6573 8.32482 46.7699 7.93895 46.7699 7.46295C46.7699 6.98695 45.6573 6.60107 44.2847 6.60107C42.9122 6.60107 41.7995 6.98695 41.7995 7.46295C41.7995 7.93895 42.9122 8.32482 44.2847 8.32482Z" fill="#FFE68E"/>
<path d="M35.549 7.98763C35.549 8.46374 34.436 8.84807 33.0638 8.84807C31.6916 8.84807 30.5786 8.46231 30.5786 7.98763C30.5786 7.51296 31.6916 7.1272 33.0638 7.1272C34.436 7.1272 35.549 7.51153 35.549 7.98763Z" fill="#FFE68E"/>
<path d="M33.1387 2.58134C33.1387 2.91404 32.364 3.18221 31.4108 3.18221C30.4576 3.18221 29.683 2.91404 29.683 2.58134C29.683 2.24864 30.4576 1.98047 31.4108 1.98047C32.364 1.98047 33.1387 2.25581 33.1387 2.58134Z" fill="#FFE68E"/>
<path d="M26.1365 12.4133C26.1365 12.7446 25.3604 13.0142 24.4087 13.0142C23.4569 13.0142 22.6808 12.7446 22.6808 12.4133C22.6808 12.0821 23.4555 11.811 24.4087 11.811C25.3619 11.811 26.1365 12.0806 26.1365 12.4133Z" fill="#FFE68E"/>
<path d="M19.66 7.45707C19.66 7.78834 18.8839 8.05794 17.9322 8.05794C16.9804 8.05794 16.2043 7.78834 16.2043 7.45707C16.2043 7.1258 16.9804 6.8562 17.9322 6.8562C18.8839 6.8562 19.66 7.13011 19.66 7.45707Z" fill="#FFE68E"/>
<path d="M50.0068 3.26249C50.0068 3.5952 49.2321 3.86337 48.2789 3.86337C47.3257 3.86337 46.5511 3.5952 46.5511 3.26249C46.5511 2.92979 47.3257 2.66162 48.2789 2.66162C49.2321 2.66162 50.0068 2.92979 50.0068 3.26249Z" fill="#FFE68E"/>
<path d="M56.1853 8.51268C56.1853 8.65608 55.8469 8.77511 55.4293 8.77511C55.0118 8.77511 54.6734 8.65751 54.6734 8.51268C54.6734 8.36784 55.0118 8.25024 55.4293 8.25024C55.8469 8.25024 56.1853 8.36784 56.1853 8.51268Z" fill="#FFE68E"/>
<path d="M39.4683 4.91307C39.4683 5.05647 39.1299 5.1755 38.7124 5.1755C38.2948 5.1755 37.955 5.0579 37.955 4.91307C37.955 4.76823 38.2934 4.65063 38.7124 4.65063C39.1314 4.65063 39.4683 4.76679 39.4683 4.91307Z" fill="#FFE68E"/>
<path d="M23.503 8.73777C23.503 8.88118 23.1646 9.0002 22.7471 9.0002C22.3295 9.0002 21.9911 8.88261 21.9911 8.73777C21.9911 8.59293 22.3295 8.47534 22.7471 8.47534C23.1646 8.47534 23.503 8.59293 23.503 8.73777Z" fill="#FFE68E"/>
<path d="M12.8077 11.2502C13.2252 11.2502 13.5636 11.1327 13.5636 10.9878C13.5636 10.8428 13.2252 10.7253 12.8077 10.7253C12.3902 10.7253 12.0518 10.8428 12.0518 10.9878C12.0518 11.1327 12.3902 11.2502 12.8077 11.2502Z" fill="#FFE68E"/>
<path d="M67.327 13.7253C67.7445 13.7253 68.0829 13.6078 68.0829 13.4629C68.0829 13.3179 67.7445 13.2004 67.327 13.2004C66.9095 13.2004 66.571 13.3179 66.571 13.4629C66.571 13.6078 66.9095 13.7253 67.327 13.7253Z" fill="#FFE68E"/>
<path d="M47.5561 62.6125C44.3481 58.8438 40.3812 55.1468 37.5245 52.6301L36.8607 52.0478C36.8607 52.0278 36.8607 52.0177 36.8607 52.0177L41.0507 49.8752C41.0507 49.8752 46.289 50.9178 46.3711 50.9436C46.361 50.9436 46.1047 50.8949 45.4928 50.7744C42.0299 50.1004 37.0594 51.6004 40.9759 54.675C44.1897 57.2033 46.7483 61.2516 47.5561 62.6125Z" fill="#FAB204"/>
<path d="M71.5098 50.3356C71.2881 53.578 69.4335 57.5145 66.9224 61.0451C68.5062 58.1254 71.8654 51.2319 68.9094 50.4073C66.2629 49.6688 69.4177 49.4866 71.5271 49.4436C71.537 49.741 71.5312 50.0388 71.5098 50.3356Z" fill="#FAB204"/>
<path d="M50.2328 55.5368C50.2336 55.5473 50.2336 55.5578 50.2328 55.5683C50.1983 56.0717 49.3012 56.4747 48.2012 56.4747C47.0781 56.4747 46.1681 56.0545 46.1681 55.5368C46.1689 55.446 46.1959 55.3574 46.2458 55.2815C46.4863 54.8886 47.271 54.6003 48.2012 54.6003C49.3228 54.6003 50.2328 55.0205 50.2328 55.5368Z" fill="#FFDF57"/>
<path d="M50.2328 55.5368C50.2336 55.5473 50.2336 55.5578 50.2328 55.5683C49.9909 55.9613 49.2076 56.2495 48.2775 56.2495C47.1544 56.2495 46.2429 55.8293 46.2429 55.3131C46.2414 55.3026 46.2414 55.292 46.2429 55.2815C46.4834 54.8886 47.2681 54.6003 48.1983 54.6003C49.3228 54.6003 50.2328 55.0205 50.2328 55.5368Z" fill="#E6BC0B"/>
<path d="M65.5142 55.9126C65.5149 55.9197 65.5149 55.927 65.5142 55.9341C65.4897 56.2883 64.859 56.5723 64.0844 56.5723C63.3097 56.5723 62.6546 56.2768 62.6546 55.9126C62.6553 55.8484 62.6743 55.7858 62.7093 55.7319C62.8778 55.4566 63.4293 55.2529 64.0844 55.2529C64.8792 55.2529 65.5142 55.5483 65.5142 55.9126Z" fill="#FFDF57"/>
<path d="M65.5142 55.9126C65.5149 55.9197 65.5149 55.9269 65.5142 55.9341C65.3443 56.2109 64.7942 56.4145 64.1377 56.4145C63.3472 56.4145 62.7065 56.1191 62.7065 55.7548C62.7049 55.7473 62.7049 55.7395 62.7065 55.7319C62.8749 55.4566 63.4264 55.2529 64.0815 55.2529C64.8792 55.2529 65.5142 55.5483 65.5142 55.9126Z" fill="#E6BC0B"/>
<path d="M57.8829 60.4873C57.8843 60.5002 57.8843 60.5131 57.8829 60.526C57.8397 61.1498 56.731 61.6503 55.3645 61.6503C53.9722 61.6503 52.8433 61.1298 52.8433 60.4873C52.8441 60.3748 52.877 60.2648 52.9384 60.1704C53.2378 59.6828 54.2098 59.3257 55.3645 59.3257C56.7468 59.3257 57.8829 59.8463 57.8829 60.4873Z" fill="#FFDF57"/>
<path d="M57.8828 60.4873C57.8843 60.5002 57.8843 60.5131 57.8828 60.526C57.5833 61.0136 56.6114 61.3707 55.4581 61.3707C54.0657 61.3707 52.9369 60.8501 52.9369 60.2091C52.9362 60.1962 52.9362 60.1833 52.9369 60.1704C53.2364 59.6828 54.2083 59.3257 55.3631 59.3257C56.7468 59.3257 57.8828 59.8463 57.8828 60.4873Z" fill="#E6BC0B"/>
<path d="M64.2644 64.3492C59.5603 69.5591 53.9304 72.6553 51.8152 68.6256C50.9383 66.9563 49.6756 65.1695 48.1997 63.3855C48.8361 63.8587 49.9938 64.8755 51.7389 66.9793C54.6014 70.4296 55.7302 70.1342 60.1737 67.4296C61.6299 66.5308 62.9993 65.4996 64.2644 64.3492Z" fill="#FFDF57"/>
<path d="M73.3744 80.8624C72.9591 80.9562 72.5347 81.0042 72.1088 81.0058H6.97044C6.20364 81.0056 5.4444 80.8549 4.73607 80.5624C4.02775 80.2699 3.38424 79.8412 2.8423 79.301C2.30035 78.7607 1.8706 78.1193 1.5776 77.4136C1.2846 76.7078 1.13408 75.9515 1.13465 75.1878V68.8664C1.13465 68.7861 1.13465 68.7058 1.14616 68.627L2.33982 70.269C2.33982 70.269 -4.28359 79.6448 30.7298 80.0937C57.2104 80.4407 69.1354 80.7376 73.3744 80.8624Z" fill="#E99004"/>
</g>
<defs>
<clipPath id="clip0_2735_3235">
<rect width="79" height="81" fill="white"/>
</clipPath>
</defs>
</svg>
