<svg width="57" height="81" viewBox="0 0 57 81" fill="none" xmlns="http://www.w3.org/2000/svg">
<g clip-path="url(#clip0_2735_3596)">
<path d="M42.8669 63.1699L33.5955 62.3697C33.5955 62.3697 36.7835 10.2652 37.1801 9.14773C37.5558 8.09087 44.3367 5.65404 45.7995 5.51173C45.863 5.50423 45.9272 5.50423 45.9908 5.51173C46.8797 5.63771 49.4203 9.20606 49.9301 10.2501C50.4398 11.2941 42.8669 63.1699 42.8669 63.1699Z" fill="#F1B61A"/>
<path d="M41.0984 61.0678C41.0389 61.2067 38.7187 61.9007 36.2446 62.5995L33.5896 62.3662C33.5896 62.3662 36.7835 10.2652 37.1801 9.14772C37.5557 8.09087 44.3367 5.65403 45.7995 5.51172C44.8383 17.1103 41.2069 60.8182 41.0984 61.0678Z" fill="#FED76B"/>
<path d="M16.1608 57.7293L25.4579 57.1939C25.4579 57.1939 23.7536 5.01598 23.3897 3.89147C23.0397 2.82411 16.3358 0.194803 14.8741 0.0104947C14.8121 0.000183011 14.7491 -0.0033373 14.6863 -3.83577e-06C13.794 0.103815 11.1518 3.59751 10.6152 4.62637C10.0786 5.65523 16.1608 57.7293 16.1608 57.7293Z" fill="#F1B61A"/>
<path d="M17.9887 55.6786C18.0447 55.8186 20.3427 56.578 22.7971 57.3479L25.4579 57.1939C25.4579 57.1939 23.7536 5.01598 23.3897 3.89147C23.0397 2.82411 16.3358 0.194806 14.8741 0.010498C15.5064 11.6312 17.8872 55.4254 17.9887 55.6786Z" fill="#FED76B"/>
<path d="M40.4114 65.5824L38.6674 61.9079L34.3852 52.8896C34.3852 52.8896 45.6315 17.9783 46.8668 15.3035C47.3521 14.2537 48.8499 14.3108 50.5028 14.7658C53.0761 15.4727 56.0041 17.1478 56.0041 17.1478L40.4114 65.5824Z" fill="#D18914"/>
<path d="M38.6674 61.9078L34.3852 52.8896C34.3852 52.8896 45.6315 17.9783 46.8668 15.3035C47.3521 14.2537 48.8499 14.3108 50.5028 14.7658C52.1068 15.4657 53.3794 16.1936 53.3794 16.1936L38.6674 61.9078Z" fill="#E39318"/>
<path d="M39.8281 15.5238C39.7779 16.1689 30.1099 58.6753 30.1099 58.6753L21.7181 58.6018C21.7181 58.6018 21.7846 58.1655 21.9059 57.3769C22.9802 50.3429 28.4173 15.3686 30.1029 13.5314C31.939 11.5367 37.2956 9.79856 38.3513 9.89071L38.4143 9.89888C39.2985 10.0797 39.8841 14.8787 39.8281 15.5238Z" fill="#DA9121"/>
<path d="M38.3513 9.89545C36.7182 17.4404 27.6194 57.4225 27.6194 57.4225L21.9035 57.3723C22.9802 50.3429 28.4173 15.3687 30.1029 13.5315C31.939 11.5414 37.2956 9.79863 38.3513 9.89545Z" fill="#EDA02F"/>
<path d="M26.8833 15.5146L27.4363 69.2556L27.4608 71.6598L19.4305 66.9436C19.4305 66.9436 16.4093 15.1507 17.5349 14.9174C17.9176 14.838 19.1214 14.8824 20.5434 14.9745C23.3022 15.1518 26.8833 15.5146 26.8833 15.5146Z" fill="#DA9121"/>
<path d="M26.8834 15.5146L27.4363 69.2556L22.5988 66.4152C22.5988 66.4152 19.9321 20.6986 20.5434 14.9722C23.3022 15.1518 26.8834 15.5146 26.8834 15.5146Z" fill="#EDA02F"/>
<path d="M13.7216 63.808L11.0818 60.7121L4.59721 53.1216C4.59721 53.1216 6.35747 16.4863 6.85791 13.577C7.05388 12.4408 8.51668 12.1014 10.2279 12.1095C12.8934 12.1235 16.1561 12.9797 16.1561 12.9797L13.7216 63.808Z" fill="#D18914"/>
<path d="M11.0818 60.7121L4.59721 53.1216C4.59721 53.1216 6.35747 16.4863 6.85791 13.577C7.05388 12.4408 8.51668 12.1014 10.2279 12.1095C11.959 12.3673 13.3775 12.7394 13.3775 12.7394L11.0818 60.7121Z" fill="#E39318"/>
<path d="M23.0012 72.7027L20.3591 69.6103L13.8814 62.0199C13.8814 62.0199 15.6417 25.3833 16.1421 22.4752C16.3381 21.3391 17.8021 21.0008 19.5133 21.0089C22.1777 21.0218 25.4404 21.878 25.4404 21.878L23.0012 72.7027Z" fill="#F3B415"/>
<path d="M20.3591 69.6103L13.8814 62.0198C13.8814 62.0198 15.6417 25.3833 16.1421 22.4752C16.3381 21.3391 17.8021 21.0008 19.5133 21.0089C21.2433 21.2656 22.6629 21.6388 22.6629 21.6388L20.3591 69.6103Z" fill="#F6C250"/>
<path d="M16.5049 53.1437L12.8654 50.7897L6.81124 46.8737C6.81124 46.8737 -0.816557 21.7892 0.0723217 20.1619C0.248464 19.8388 0.671907 19.5028 1.24583 19.1774C3.55785 17.865 8.29504 16.7172 8.99261 17.2223C9.86399 17.8475 16.5049 53.1437 16.5049 53.1437Z" fill="#F2B312"/>
<path d="M12.8654 50.7899L6.81124 46.8739C6.81124 46.8739 -0.816558 21.7893 0.0723218 20.1621C0.248465 19.8389 0.671907 19.503 1.24583 19.1775C3.36304 18.5021 5.57358 18.1183 6.02851 18.4508C6.73309 18.9559 11.1507 41.7984 12.8654 50.7899Z" fill="#F7C552"/>
<path d="M28.8384 60.5417L27.2391 56.5138L24.5783 49.8099C24.5783 49.8099 32.9119 24.9504 34.5776 24.1397C34.9089 23.9787 35.449 23.9519 36.1046 24.023C38.7502 24.2948 43.2751 26.1076 43.5504 26.923C43.8957 27.9367 28.8384 60.5417 28.8384 60.5417Z" fill="#F3B415"/>
<path d="M27.2391 56.5114L24.5783 49.8098C24.5783 49.8098 32.9119 24.9504 34.5776 24.1397C34.9089 23.9787 35.449 23.9519 36.1046 24.023C38.2218 24.7008 40.2457 25.6701 40.4277 26.2079C40.7041 27.0198 31.0559 48.1907 27.2391 56.5114Z" fill="#F7C552"/>
<path d="M50.7536 40.108L43.2775 80.9999L8.34987 77.9868L8.23322 36.4417L9.87449 36.5828C9.5432 42.2614 15.2848 47.3462 22.8321 47.9971C23.7286 48.075 24.6296 48.0867 25.5279 48.0321C26.4034 48.2399 27.2932 48.3826 28.1898 48.459C35.7372 49.1099 42.2649 45.0831 42.9112 39.4279L50.7536 40.108Z" fill="#C11A01"/>
<path d="M45.3959 39.6461L41.5464 60.7074L40.2247 67.9397L37.9209 80.538L2.99209 77.5249L2.95592 64.726L2.93609 57.377L2.8766 35.9797L9.87566 36.5828C9.54437 42.2614 15.2859 47.3462 22.8332 47.9971C23.7298 48.075 24.6308 48.0867 25.529 48.0321C31.8783 47.6448 36.9853 43.9353 37.5534 38.9695L45.3959 39.6461Z" fill="#DB2508"/>
<path d="M41.5452 60.7074L40.2224 67.9409L2.95593 64.726L2.93494 57.3782L41.5452 60.7074Z" fill="#FDD015"/>
<path d="M28.251 63.4098C28.6079 59.2724 25.5432 55.629 21.4057 55.2721C17.2683 54.9152 13.6249 57.98 13.268 62.1174C12.9112 66.2548 15.9759 69.8982 20.1133 70.2551C24.2508 70.612 27.8941 67.5472 28.251 63.4098Z" fill="#FDD015"/>
<path d="M25.3389 60.3493C24.9073 60.9675 23.5156 60.7424 22.2313 59.8442C20.947 58.946 20.2553 57.7188 20.6869 57.1006C21.1185 56.4823 22.5136 56.7075 23.7968 57.6045C25.0799 58.5016 25.7717 59.731 25.3389 60.3493Z" fill="#FFE36C"/>
<path d="M36.5922 67.5676L36.1174 67.4789C35.6253 67.3869 35.1898 67.1032 34.9068 66.6902C34.6237 66.2772 34.5163 65.7688 34.608 65.2766L38.0492 46.8796C38.1412 46.3874 38.4249 45.952 38.8379 45.6689C39.2509 45.3859 39.7593 45.2784 40.2515 45.3701L40.7263 45.4588C41.2185 45.5511 41.654 45.835 41.937 46.2482C42.2201 46.6613 42.3275 47.17 42.2358 47.6623L38.7957 66.0593C38.7502 66.3031 38.657 66.5355 38.5216 66.7432C38.3862 66.951 38.2112 67.13 38.0065 67.2701C37.8019 67.4101 37.5717 67.5085 37.329 67.5596C37.0863 67.6106 36.8359 67.6133 36.5922 67.5676Z" fill="#FF4431"/>
<path d="M39.8234 60.5593L38.8447 65.8226C38.7408 66.3777 38.4206 66.8686 37.9546 67.1876C37.4887 67.5066 36.9151 67.6273 36.3601 67.5234C35.805 67.4194 35.3141 67.0993 34.9951 66.6333C34.6761 66.1673 34.5554 65.5938 34.6593 65.0387L35.5587 60.1919L39.8234 60.5593Z" fill="#FFE36C"/>
</g>
<defs>
<clipPath id="clip0_2735_3596">
<rect width="56.0041" height="81" fill="white"/>
</clipPath>
</defs>
</svg>
