<svg width="41" height="81" viewBox="0 0 41 81" fill="none" xmlns="http://www.w3.org/2000/svg">
<g clip-path="url(#clip0_2735_3999)">
<path d="M20.7095 9.859L17.3158 10.1273C17.2106 10.1356 17.1321 10.2276 17.1404 10.3327L22.0102 71.9336C22.0185 72.0388 22.1104 72.1172 22.2156 72.1089L25.6093 71.8406C25.7144 71.8323 25.7929 71.7404 25.7846 71.6352L20.9149 10.0343C20.9066 9.92918 20.8146 9.85069 20.7095 9.859Z" fill="#DD9C00"/>
<path d="M18.3158 11.6929L17.2029 10.2904C17.1866 10.2686 17.1792 10.2414 17.1824 10.2143C17.1855 10.1873 17.199 10.1625 17.2199 10.1451L29.492 0.410591C29.885 0.101462 30.3842 -0.039879 30.8809 0.0173449C31.3777 0.0745688 31.8317 0.325723 32.1441 0.716119C32.4561 1.10969 32.599 1.611 32.5415 2.10989C32.484 2.60879 32.2308 3.06445 31.8375 3.37676L20.9764 11.9984C20.7817 12.153 20.5584 12.2678 20.3192 12.3361C20.0801 12.4045 19.8299 12.4251 19.5828 12.3967C19.3358 12.3683 19.0967 12.2916 18.8793 12.1708C18.6619 12.05 18.4704 11.8876 18.3158 11.6929Z" fill="#DD9C00"/>
<path d="M36.7748 31.497L37.3678 65.7162L37.5545 76.1848C37.5677 76.9508 37.2883 77.693 36.7732 78.2601C36.2581 78.8272 35.5462 79.1765 34.7825 79.2369L12.5701 80.9905C11.8054 81.0511 11.0464 80.8172 10.4485 80.3366C9.8506 79.856 9.45891 79.1651 9.35361 78.4052L3.20061 34.1407C3.18058 33.9938 3.17101 33.8456 3.17197 33.6973C3.17968 32.9454 3.46842 32.2237 3.9814 31.674C4.49439 31.1243 5.19449 30.7864 5.944 30.7269L33.5264 28.5489C33.9362 28.5161 34.3483 28.5676 34.7373 28.7002C35.1264 28.8328 35.4842 29.0438 35.7886 29.32C36.0929 29.5963 36.3375 29.932 36.5071 30.3064C36.6767 30.6808 36.7678 31.0861 36.7748 31.497Z" fill="#DD260D"/>
<path d="M37.3678 65.7162L37.5545 76.1848C37.5677 76.9508 37.2883 77.693 36.7732 78.2601C36.2581 78.8272 35.5462 79.1765 34.7825 79.2369L12.5701 80.9905C11.8054 81.0511 11.0464 80.8171 10.4485 80.3366C9.8506 79.856 9.45891 79.1651 9.35361 78.4052L3.20061 34.1407C3.18058 33.9938 3.17101 33.8456 3.17197 33.6973L5.56528 35.68C5.56528 35.68 8.50068 71.7653 22.2176 71.4597C30.051 71.29 34.7655 68.2708 37.3678 65.7162Z" fill="#C11A01"/>
<path d="M36.9233 25.0088C36.9672 25.463 36.8733 25.92 36.6538 26.32C36.4501 26.667 36.1499 26.894 35.7998 26.9216L4.95317 29.3615C4.25406 29.4167 3.62285 28.6497 3.54328 27.6483C3.51839 27.3504 3.54823 27.0506 3.63133 26.7635C3.67083 26.6283 3.7249 26.4977 3.79258 26.3742C3.84864 26.2716 3.91627 26.1759 3.99415 26.0888C4.16374 25.8868 4.40541 25.7589 4.6678 25.7323L35.5145 23.2923C36.0396 23.251 36.5255 23.6732 36.7684 24.3087C36.8533 24.5334 36.9055 24.7692 36.9233 25.0088Z" fill="#B4CACC"/>
<path d="M36.9233 25.0087C36.9672 25.463 36.8733 25.9199 36.6538 26.32C36.4501 26.6669 36.1499 26.8939 35.7998 26.9215L4.95317 29.3615C4.25406 29.4167 3.62285 28.6496 3.54328 27.6482C3.51839 27.3504 3.54823 27.0505 3.63133 26.7634C3.67083 26.6282 3.7249 26.4976 3.79258 26.3741C5.62257 26.9788 9.52124 27.3766 17.7652 26.6117C32.6289 25.2326 35.5664 25.2931 36.7673 24.3149C36.852 24.5376 36.9045 24.7712 36.9233 25.0087Z" fill="#95ABB1"/>
<path d="M39.6582 27.3702L40.0825 32.7148C40.1186 33.1733 39.9713 33.6274 39.673 33.9774C39.3747 34.3274 38.9497 34.5448 38.4912 34.5819L2.29464 37.4483C2.00951 37.4708 1.72324 37.4224 1.46134 37.3075C1.19944 37.1925 0.970019 37.0146 0.79352 36.7896C0.578998 36.5204 0.45037 36.1929 0.42434 35.8496L-4.31435e-06 30.5061C-0.0360663 30.0475 0.111195 29.5933 0.409493 29.2431C0.707791 28.8929 1.13278 28.6752 1.59129 28.6379L37.7911 25.7789C38.2496 25.7425 38.7039 25.8897 39.054 26.1881C39.4041 26.4865 39.6214 26.9116 39.6582 27.3702Z" fill="#B4CACC"/>
<path d="M39.8025 29.2002L40.0804 32.718C40.1165 33.1765 39.9692 33.6306 39.6709 33.9806C39.3726 34.3307 38.9476 34.5481 38.4892 34.5851L2.29464 37.4484C2.00951 37.4709 1.72324 37.4225 1.46134 37.3076C1.19943 37.1926 0.970019 37.0147 0.79352 36.7896C0.578997 36.5204 0.450369 36.1929 0.42434 35.8497L0.0371246 30.9029C1.08207 32.7605 4.53624 34.8939 15.0855 34.4642C31.6455 33.7916 38.5772 33.0087 39.8025 29.2002Z" fill="#95ABB1"/>
<path d="M19.6335 13.3721L19.4273 13.3884C19.2141 13.4053 19.0549 13.5918 19.0718 13.805L19.8297 23.3918C19.8465 23.6049 20.033 23.7641 20.2462 23.7472L20.4524 23.7309C20.6656 23.7141 20.8248 23.5276 20.8079 23.3144L20.05 13.7276C20.0332 13.5144 19.8467 13.3553 19.6335 13.3721Z" fill="#FFCB57"/>
<path d="M31.6731 61.1832C31.0623 61.2313 30.4574 61.0347 29.9915 60.6368C29.5256 60.239 29.2367 59.6723 29.1886 59.0615L27.871 42.3731C27.847 42.0706 27.8829 41.7664 27.9766 41.4778C28.0703 41.1892 28.22 40.9219 28.417 40.6912C28.6141 40.4604 28.8546 40.2708 29.125 40.1331C29.3953 39.9954 29.6902 39.9123 29.9927 39.8885C30.2952 39.8646 30.5994 39.9005 30.888 39.9942C31.1766 40.0879 31.4439 40.2376 31.6746 40.4346C31.9053 40.6316 32.095 40.8722 32.2327 41.1426C32.3704 41.4129 32.4535 41.7078 32.4772 42.0103L33.7948 58.6998C33.8186 59.0021 33.7826 59.3063 33.6888 59.5947C33.595 59.8832 33.4454 60.1504 33.2484 60.381C33.0513 60.6116 32.8108 60.8011 32.5405 60.9388C32.2702 61.0764 31.9755 61.1595 31.6731 61.1832Z" fill="#EF3522"/>
</g>
<defs>
<clipPath id="clip0_2735_3999">
<rect width="40.0857" height="81" fill="white"/>
</clipPath>
</defs>
</svg>
