<svg width="30" height="30" viewBox="0 0 30 30" fill="none" xmlns="http://www.w3.org/2000/svg">
<path d="M22.4045 10.2905C18.9195 8.34122 13.3258 5.21119 4.64974 0.35323C4.0648 -0.0330797 3.39179 -0.0837048 2.8103 0.113112L17.6961 14.9989L22.4045 10.2905Z" fill="#32BBFF"/>
<path d="M2.81027 0.113159C2.70129 0.150073 2.59523 0.194605 2.49381 0.248394C1.85168 0.595738 1.37982 1.26412 1.37982 2.10945V27.8884C1.37982 28.7337 1.85162 29.4021 2.49381 29.7494C2.59506 29.8031 2.70105 29.8479 2.80992 29.885L17.696 14.9989L2.81027 0.113159Z" fill="#32BBFF"/>
<path d="M17.6961 14.9989L2.80994 29.885C3.3916 30.0832 4.06461 30.0365 4.64973 29.6445C13.0637 24.933 18.5943 21.8401 22.1196 19.8743C22.2178 19.8191 22.3139 19.7652 22.4089 19.7118L17.6961 14.9989Z" fill="#32BBFF"/>
<path d="M1.37982 14.9989V27.8884C1.37982 28.7337 1.85162 29.4021 2.49381 29.7494C2.59506 29.8031 2.70105 29.8478 2.80992 29.885L17.696 14.9989H1.37982Z" fill="#2C9FD9"/>
<path d="M4.64974 0.353198C3.95511 -0.105474 3.13597 -0.0924078 2.49384 0.248374L17.4701 15.2247L22.4044 10.2904C18.9195 8.34118 13.3258 5.21116 4.64974 0.353198Z" fill="#29CC5E"/>
<path d="M17.4702 14.7731L2.49384 29.7493C3.13602 30.0901 3.95511 30.1098 4.64974 29.6445C13.0637 24.933 18.5943 21.8401 22.1196 19.8742C22.2178 19.8191 22.3139 19.7652 22.409 19.7118L17.4702 14.7731Z" fill="#D93F21"/>
<path d="M28.6201 14.9989C28.6201 14.2847 28.2597 13.5638 27.5454 13.1641C27.5454 13.1641 26.2095 12.4187 22.1148 10.1284L17.2443 14.9989L22.1196 19.8742C26.1693 17.6004 27.5454 16.8337 27.5454 16.8337C28.2597 16.434 28.6201 15.7132 28.6201 14.9989Z" fill="#FFD500"/>
<path d="M27.5454 16.8337C28.2597 16.434 28.6201 15.7132 28.6201 14.9989H17.2443L22.1196 19.8742C26.1694 17.6004 27.5454 16.8337 27.5454 16.8337Z" fill="#FFAA00"/>
</svg>
