<svg width="85" height="62" viewBox="0 0 85 62" fill="none" xmlns="http://www.w3.org/2000/svg">
<g clip-path="url(#clip0_2992_1915)">
<path d="M20.5928 33.7419C20.5928 33.7419 16.3104 31.9494 14.929 27.1331C13.5475 22.3167 19.2114 19.184 23.4937 19.3646C27.7761 19.5453 15.592 16.8965 15.592 16.8965L10.8855 20.2057L8.22632 31.4075L12.3885 34.3031L20.5928 33.7419Z" fill="#F9FDFE"/>
<path d="M12.3761 34.3431L12.3637 34.3334L8.17664 31.4268L8.18354 31.3979L10.8414 20.1823L10.8552 20.1726L15.5755 16.8496H15.5948C15.617 16.8496 17.8397 17.3377 20.0264 17.8713C24.4857 18.9579 24.4566 19.184 24.447 19.2805C24.4373 19.377 24.353 19.4405 23.4896 19.4046C20.6329 19.286 17.4252 20.6373 15.8615 22.6201C15.3526 23.2379 15.0046 23.9717 14.8487 24.7562C14.6927 25.5408 14.7336 26.3516 14.9677 27.1165C16.3325 31.857 20.5707 33.6799 20.6122 33.6978L20.7848 33.7695L12.3761 34.3431ZM8.2761 31.3882L12.401 34.2521L20.4132 33.7102C19.6244 33.3255 16.1018 31.402 14.8751 27.1441C14.6373 26.3657 14.596 25.5407 14.7548 24.7425C14.9136 23.9443 15.2677 23.1977 15.7855 22.5691C17.3907 20.5339 20.5555 19.1992 23.4855 19.3205C24.2577 19.3536 24.3434 19.2847 24.353 19.2709C24.2798 18.9496 18.9489 17.6742 15.5921 16.9434L10.9201 20.2347L8.2761 31.3882Z" fill="#171717"/>
<path d="M0.0635376 34.4106C0.0635376 34.4106 0.730762 45.4069 12.9922 52.1357C25.2537 58.8645 44.6612 55.5677 44.6612 55.5677L47.4669 49.2898C47.4669 49.2898 48.3095 57.0113 42.6402 61.9352C50.3167 62.5212 60.0916 50.6038 60.0916 50.6038L77.1494 40.0818L76.735 39.089V37.5943L75.7017 39.0849L75.3812 37.3668L74.7941 38.5416L74.341 37.1862L73.5715 38.2245L73.2027 36.9601L72.1694 37.9542L71.7619 36.7794L71.0836 37.9087L68.3208 37.2772L69.7229 35.8763L69.8141 35.1993L70.5379 35.515L70.8543 34.6119L71.4427 35.1993L71.7591 33.7405L72.6639 34.5678L73.4334 33.2579L73.9763 34.2961L74.5675 32.2651L74.7485 33.7418L75.4724 31.6736L75.6533 32.6663L76.8289 31.3564L77.1466 32.7573L77.7337 30.3182L78.0515 32.3051L79.0005 30.3182L79.5434 31.7177L81.8213 28.5725L77.9603 26.8876L68.8208 32.0803L34.2108 41.6578L23.9883 42.1997L2.85815 36.2844L0.0635376 34.4106Z" fill="#F9FDFE"/>
<path d="M43.1873 62C43.0021 62 42.8198 62 42.6347 61.9779L42.5297 61.971L42.6098 61.9007C47.7321 57.4539 47.5139 50.6313 47.4351 49.4662L44.6916 55.6062H44.6681C41.0098 56.1516 37.3157 56.4217 33.6168 56.4142H33.4303C27.5993 56.3991 19.3177 55.6504 12.9757 52.1701C6.63357 48.6899 3.44388 44.046 1.89531 40.7643C0.20584 37.2124 0.0207296 34.4409 0.0193481 34.4133V34.3237L2.88165 36.2444L23.9966 42.1556L34.2191 41.6137L68.8208 32.0417L77.9686 26.842L77.9893 26.8517L81.9001 28.5587L81.8683 28.6028L79.5434 31.8156L79.0074 30.4367L78.0404 32.4595L77.7365 30.5512L77.1453 32.9545L76.8068 31.4557L75.6271 32.7683L75.4585 31.8514L74.7347 33.9348L74.5565 32.4857L74.0039 34.4161L73.4514 33.3502L72.6957 34.6381L71.8075 33.8273L71.4897 35.2889L70.8943 34.6946L70.5849 35.5771L69.8707 35.2654L69.7864 35.8983L68.4299 37.2524L71.0795 37.8604L71.7909 36.6774L72.2053 37.8756L73.2414 36.8787L73.6061 38.1279L74.3728 37.0938L74.8176 38.4271L75.4171 37.2303L75.739 38.9718L76.7999 37.4551V39.0766L77.2143 40.0969L77.1826 40.1162L60.1193 50.6341C58.3272 52.7453 56.3725 54.7134 54.2731 56.5204C51.3045 59.0561 47.0304 61.9986 43.1873 62ZM42.7493 61.8979C46.6712 62.1351 51.1428 59.0768 54.2151 56.4542C56.313 54.6484 58.2662 52.6817 60.0571 50.5721L60.0682 50.5624L77.0928 40.0597L76.6963 39.0849V37.735L75.6754 39.1965L75.3618 37.5047L74.7858 38.656L74.3258 37.2772L73.555 38.332L73.1806 37.051L72.15 38.0424L71.7508 36.8925L71.1043 37.968L71.0739 37.9597L68.242 37.3034L69.6911 35.857L69.7878 35.1372L70.5214 35.4571L70.846 34.5333L71.4262 35.1124L71.7425 33.6577L72.6639 34.4988L73.4458 33.1682L73.9735 34.1789L74.5924 32.0458L74.7761 33.5488L75.4931 31.5053L75.6879 32.5753L76.8607 31.2695L77.1549 32.567L77.7503 30.0975L78.0791 32.1658L79.0116 30.2147L79.5641 31.6349L81.762 28.6015L77.9713 26.9468L68.854 32.1286L34.2219 41.7005L23.9814 42.2452L2.84573 36.3244L0.116047 34.4988C0.163016 35.0035 0.464164 37.5516 1.97267 40.734C3.51986 44.0032 6.69159 48.6279 13.013 52.0971C19.3343 55.5663 27.6035 56.315 33.4303 56.3301H33.6237C37.3099 56.3365 40.9915 56.0682 44.6377 55.5276L47.5 49.1229L47.518 49.2856C47.6226 50.7886 47.5232 52.2988 47.2224 53.7751C46.772 56.0833 45.6282 59.3567 42.7493 61.8979Z" fill="#171717"/>
<path d="M84.8978 19.3645C70.2992 20.0874 55.9886 23.6893 42.7922 29.9624C35.6508 24.7082 26.7115 22.4992 17.9391 23.821C19.8902 25.0681 21.5044 26.7745 22.6399 28.7903C23.7754 30.806 24.3973 33.0693 24.4511 35.3812C20.2334 36.4296 15.8811 36.8354 11.5418 36.585C7.65456 36.3593 3.81328 35.6297 0.114685 34.4147C1.77239 36.7587 5.32401 40.8525 10.9409 43.9922C15.6296 46.6031 20.895 48.0099 26.2635 48.086C31.3709 48.3216 36.4602 47.3285 41.1027 45.1904C43.5771 45.3018 46.0563 45.2415 48.5223 45.0098C51.4765 44.7316 54.4024 44.2081 57.2695 43.4448C59.9145 42.709 62.3516 41.3688 64.3879 39.5302C65.5533 38.4688 66.5679 37.2533 67.4035 35.9176C68.5294 34.4009 71.3005 31.1316 76.0609 29.506C77.9153 28.8757 79.8624 28.5602 81.8214 28.5725C82.9559 27.34 83.8166 25.882 84.3468 24.2941C84.877 22.7063 85.0647 21.0244 84.8978 19.359V19.3645Z" fill="#F92D0D"/>
<path d="M84.942 19.3605V19.3191H84.8992C70.3021 20.0419 55.9927 23.6418 42.7963 29.9114C35.6492 24.6596 26.7062 22.4533 17.9308 23.7769L17.8148 23.7948L17.9128 23.8583C19.8536 25.0975 21.4603 26.7928 22.5922 28.7957C23.7241 30.7986 24.3467 33.048 24.4055 35.3468C20.2041 36.3886 15.8691 36.7907 11.5473 36.5396C7.66261 36.3179 3.82373 35.5897 0.128472 34.3734L0 34.3334L0.0773594 34.4437C0.129166 34.4558 0.178951 34.4753 0.225171 34.5016C3.88879 35.6951 7.69153 36.4111 11.539 36.6319C15.883 36.883 20.2401 36.4763 24.4621 35.4254L24.4953 35.4172V35.3813C24.4407 33.0829 23.8263 30.8323 22.7052 28.824C21.5841 26.8156 19.99 25.1099 18.0607 23.8541C26.7862 22.5713 35.6662 24.7822 42.7659 30.0052L42.7866 30.0203L42.8115 30.0093C55.9895 23.7445 70.2795 20.145 84.8577 19.4184C85.0168 21.0675 84.827 22.7317 84.3006 24.3029C83.7742 25.8742 82.923 27.3175 81.802 28.5395C81.7895 28.5704 81.7747 28.6003 81.7578 28.6291H81.8476L81.86 28.6139C82.9988 27.3771 83.8628 25.9139 84.3951 24.3203C84.9274 22.7268 85.1162 21.0389 84.9489 19.3674L84.942 19.3605Z" fill="#171717"/>
<path d="M41.886 21.5335C41.3956 21.772 40.2379 21.2398 39.742 21.0964C36.1541 20.0772 32.9743 17.9655 30.6465 15.0559C28.3187 12.1463 26.9588 8.58399 26.7567 4.86596C26.7277 4.35165 26.7208 3.83458 26.7346 3.31889C26.7415 3.09966 26.7512 2.88042 26.765 2.6598C26.8133 1.79835 26.9279 0.941864 27.1076 0.0979004C23.5685 2.44097 20.8391 5.81618 19.2915 9.76364C18.7224 11.2169 18.3411 12.7971 17.439 14.0919C16.577 15.3328 15.389 15.7037 14.0684 16.2649C7.19167 19.1867 1.79586 25.1613 0.324646 32.5519C2.39926 33.2681 4.54128 33.7726 6.71785 34.0576C8.59736 34.3036 10.4949 34.3843 12.3886 34.2989C12.6027 34.2879 12.0667 30.8104 12.0253 30.5388C11.7324 28.6001 10.8372 26.5001 11.0873 24.5546C11.2802 22.9685 11.9435 21.4762 12.9922 20.2691C14.6389 18.4063 16.7027 17.67 19.1451 18.1622C20.3954 18.4166 21.5712 18.9518 22.5834 19.7272C25.3216 21.7744 28.5733 23.0266 31.9795 23.3456C35.3857 23.6646 38.814 23.0379 41.886 21.5349V21.5335Z" fill="#F92D0D"/>
<path d="M41.8666 21.4935C41.5019 21.67 40.7339 21.397 40.173 21.1957C40.0086 21.1378 39.8663 21.0868 39.7586 21.0578C36.1845 20.0305 33.0181 17.9208 30.6967 15.0201C28.3754 12.1194 27.0136 8.57091 26.7995 4.86458C26.7705 4.35165 26.7636 3.83182 26.7774 3.32027C26.7774 3.10241 26.794 2.88042 26.8078 2.66256C26.8564 1.8034 26.971 0.949233 27.1504 0.10755L27.1739 0L27.0827 0.0606694C23.5365 2.40988 20.8016 5.79258 19.2501 9.74847C19.094 10.1456 18.9503 10.5592 18.8108 10.9591C18.4392 12.025 18.0551 13.128 17.4059 14.0643C16.6544 15.1467 15.6667 15.5534 14.5242 16.025C14.3695 16.0884 14.212 16.1532 14.0532 16.2208C6.85876 19.2791 1.7116 25.3805 0.276306 32.5409V32.5795L0.312223 32.5919C2.39004 33.3088 4.53528 33.8138 6.71509 34.099C8.11437 34.282 9.52408 34.3741 10.9353 34.3747C11.4234 34.3747 11.9097 34.3637 12.3941 34.3416C12.4038 34.3413 12.4133 34.3387 12.422 34.3342C12.4306 34.3297 12.438 34.3233 12.4438 34.3154C12.4565 34.2944 12.4645 34.2709 12.4673 34.2465H12.4328H12.372C12.3728 34.2492 12.3728 34.2521 12.372 34.2548C10.4853 34.3391 8.59475 34.2588 6.722 34.0149C4.55922 33.7313 2.43039 33.232 0.36748 32.5243C1.80415 25.4067 6.92645 19.3453 14.078 16.3063L14.5477 16.1105C15.704 15.6348 16.7027 15.2225 17.4694 14.118C18.1284 13.1694 18.5138 12.0608 18.8881 10.9908C19.0263 10.5909 19.1713 10.1787 19.326 9.78156C20.8569 5.87732 23.5464 2.53321 27.0344 0.197176C26.8679 1.0087 26.7612 1.83133 26.7153 2.65842C26.7014 2.87766 26.6918 3.09966 26.6849 3.32027C26.6697 3.8332 26.678 4.35579 26.707 4.8701C26.9053 8.60049 28.2706 12.1749 30.6108 15.0901C32.9462 18.0036 36.133 20.1184 39.7282 21.1405C39.8373 21.1722 39.9782 21.2233 40.1426 21.2784C40.5805 21.4342 41.1442 21.6355 41.5627 21.6369C38.5232 23.0565 35.1544 23.6252 31.8162 23.2822C28.478 22.9393 25.2959 21.6977 22.6097 19.69C22.4356 19.5521 22.256 19.4349 22.0737 19.3177C22.039 19.3232 22.0039 19.326 21.9687 19.326H21.9204C22.1386 19.4639 22.3514 19.6017 22.5558 19.7631C25.3005 21.815 28.5599 23.0701 31.9741 23.3898C35.3884 23.7096 38.8247 23.0815 41.9039 21.5749L41.8666 21.4935Z" fill="#171717"/>
<path d="M76.9229 24.7546C77.4409 24.7546 77.8608 24.3354 77.8608 23.8183C77.8608 23.3012 77.4409 22.8821 76.9229 22.8821C76.4048 22.8821 75.9849 23.3012 75.9849 23.8183C75.9849 24.3354 76.4048 24.7546 76.9229 24.7546Z" fill="white"/>
<path d="M76.9228 24.7986C76.7282 24.7988 76.5378 24.7415 76.3759 24.6337C76.2139 24.5259 76.0876 24.3726 76.013 24.1932C75.9384 24.0137 75.9188 23.8162 75.9567 23.6256C75.9946 23.4351 76.0883 23.26 76.2259 23.1226C76.3636 22.9852 76.539 22.8917 76.7299 22.8539C76.9208 22.816 77.1187 22.8356 77.2985 22.9101C77.4783 22.9846 77.6318 23.1106 77.7398 23.2723C77.8478 23.4339 77.9053 23.6239 77.905 23.8182C77.9043 24.078 77.8006 24.3269 77.6165 24.5106C77.4325 24.6943 77.1831 24.7978 76.9228 24.7986ZM76.9228 22.9247C76.7457 22.9244 76.5725 22.9766 76.4251 23.0746C76.2777 23.1726 76.1628 23.3121 76.0948 23.4753C76.0268 23.6386 76.0089 23.8183 76.0433 23.9917C76.0777 24.1651 76.1628 24.3244 76.288 24.4495C76.4131 24.5746 76.5726 24.6598 76.7463 24.6944C76.92 24.729 77.1 24.7114 77.2637 24.6438C77.4273 24.5762 77.5672 24.4617 77.6656 24.3147C77.7641 24.1678 77.8166 23.995 77.8166 23.8182C77.8166 23.5815 77.7225 23.3544 77.5549 23.1869C77.3873 23.0194 77.16 22.9251 76.9228 22.9247Z" fill="#171717"/>
<path d="M57.6935 31.788C57.327 33.3226 57.3136 34.9202 57.6543 36.4608C57.995 38.0014 58.6809 39.4449 59.6607 40.6829C59.5697 40.6122 59.4699 40.5538 59.3636 40.5092C59.2255 40.4237 59.0874 40.3327 58.963 40.2334C58.6196 39.98 58.303 39.6921 58.0181 39.3744C57.3201 38.5916 56.8374 37.6414 56.6174 36.6167C56.3876 35.6089 56.4354 34.5579 56.7555 33.575C56.9765 32.9356 57.2927 32.3332 57.6935 31.788Z" fill="white"/>
<path d="M59.6261 40.7106C59.5724 40.6643 59.5112 40.6275 59.4451 40.6017C59.4051 40.5824 59.3678 40.5645 59.3402 40.5479C59.202 40.4624 59.0639 40.37 58.9368 40.2721C58.5911 40.0167 58.2722 39.7271 57.985 39.4076C57.2811 38.6166 56.7946 37.657 56.5732 36.6223C56.341 35.6069 56.3888 34.5477 56.7113 33.5571C56.9326 32.9157 57.2497 32.3114 57.6521 31.7646L57.7805 31.5881L57.7308 31.8005C57.3336 33.4868 57.3597 35.2449 57.8068 36.9188C58.1734 38.28 58.8141 39.5523 59.6897 40.6582L59.6261 40.7106ZM57.6051 31.9894C57.2684 32.4822 56.9994 33.0178 56.8053 33.582C56.4868 34.5571 56.4391 35.6002 56.6671 36.6003C56.8848 37.6197 57.3642 38.5653 58.0582 39.3442C58.3412 39.6592 58.6554 39.9447 58.9962 40.1963C59.1247 40.2914 59.2587 40.3824 59.394 40.4721C59.4235 40.4894 59.4539 40.505 59.4852 40.5189C58.6772 39.4492 58.0825 38.2345 57.7336 36.9408C57.3005 35.3235 57.2565 33.6269 57.6051 31.9894Z" fill="#171717"/>
<path d="M50.0709 34.2423C49.78 35.465 49.7699 36.7375 50.0414 37.9646C50.313 39.1917 50.859 40.3416 51.6388 41.3282C51.5668 41.2717 51.4873 41.2253 51.4026 41.1903C51.2934 41.1214 51.1857 41.0524 51.0835 40.9725C50.8098 40.7712 50.5576 40.5425 50.3306 40.2899C49.7736 39.6633 49.389 38.9032 49.2144 38.0838C49.0324 37.2808 49.0716 36.4437 49.3277 35.6611C49.5024 35.1535 49.753 34.6752 50.0709 34.2423Z" fill="white"/>
<path d="M51.6042 41.3559C51.5633 41.3198 51.5166 41.2909 51.4661 41.2704C51.4372 41.2578 51.409 41.2435 51.3818 41.2276C51.2727 41.1601 51.1649 41.0897 51.0599 41.0084C50.784 40.8048 50.5295 40.5738 50.3002 40.319C49.7395 39.6877 49.3529 38.9217 49.1785 38.0963C48.9937 37.2851 49.0334 36.4392 49.2931 35.6488C49.4688 35.1362 49.7212 34.6532 50.0418 34.2162L50.1717 34.0397L50.122 34.252C49.8056 35.5944 49.8265 36.9941 50.1827 38.3265C50.4744 39.4091 50.9839 40.4211 51.6802 41.3007L51.6042 41.3559ZM49.9797 34.4492C49.7241 34.8308 49.5189 35.2438 49.3691 35.6777C49.1158 36.4528 49.0771 37.2818 49.2572 38.0769C49.4297 38.8879 49.8106 39.64 50.3623 40.2597C50.587 40.5103 50.837 40.7372 51.1083 40.9367C51.2119 41.0139 51.3183 41.0856 51.4246 41.1518C51.4366 41.1595 51.449 41.1665 51.4619 41.1725C50.8288 40.3267 50.3628 39.3683 50.0888 38.3486C49.7487 37.075 49.7114 35.7397 49.9797 34.4492Z" fill="#171717"/>
<path d="M53.7869 32.767C53.4387 34.2243 53.4259 35.7414 53.7494 37.2044C54.0729 38.6673 54.7242 40.0381 55.6546 41.2138C55.5696 41.1476 55.4768 41.092 55.3783 41.0483C55.2484 40.9684 55.1213 40.8815 54.997 40.7905C54.6713 40.5499 54.3709 40.2769 54.1005 39.9756C53.4374 39.2319 52.979 38.3292 52.7702 37.3558C52.5542 36.3981 52.6019 35.3999 52.9083 34.4671C53.1129 33.8591 53.4092 33.2858 53.7869 32.767Z" fill="white"/>
<path d="M55.62 41.2415C55.5692 41.1975 55.5113 41.1625 55.4487 41.138C55.4114 41.1201 55.3755 41.1022 55.3492 41.087C55.2194 41.0057 55.0909 40.9188 54.9652 40.8264C54.6363 40.5825 54.3335 40.3052 54.0618 39.9991C53.3926 39.2481 52.9308 38.3362 52.7218 37.3531C52.5036 36.3877 52.5513 35.3814 52.8599 34.441C53.0703 33.8308 53.3716 33.2558 53.7537 32.7353L53.8822 32.5588L53.8324 32.7712C53.4553 34.3725 53.48 36.0421 53.9043 37.6316C54.2528 38.9235 54.8609 40.131 55.6918 41.1808L55.62 41.2415ZM53.6943 32.9684C53.3772 33.4335 53.124 33.939 52.9414 34.4713C52.6369 35.3964 52.5892 36.3865 52.8033 37.3366C53.0103 38.3046 53.4653 39.2025 54.1239 39.9426C54.3924 40.2411 54.6905 40.5119 55.0135 40.7506C55.1365 40.8416 55.2636 40.9285 55.3921 41.0071C55.4128 41.0208 55.4404 41.0333 55.4694 41.0484C54.7056 40.0334 54.1429 38.8821 53.8117 37.6564C53.4046 36.1265 53.3643 34.5223 53.6943 32.9739V32.9684Z" fill="#171717"/>
</g>
<defs>
<clipPath id="clip0_2992_1915">
<rect width="85" height="62" fill="white"/>
</clipPath>
</defs>
</svg>
