<?xml version="1.0" encoding="UTF-8" standalone="no"?>
<!-- Created with Inkscape (http://www.inkscape.org/) -->

<svg
   version="1.1"
   id="svg2"
   xml:space="preserve"
   width="259.4469"
   height="475.5979"
   viewBox="0 0 259.44689 475.5979"
   sodipodi:docname="burrito2.svg"
   inkscape:export-filename="burrito.svg"
   inkscape:export-xdpi="96"
   inkscape:export-ydpi="96"
   xmlns:inkscape="http://www.inkscape.org/namespaces/inkscape"
   xmlns:sodipodi="http://sodipodi.sourceforge.net/DTD/sodipodi-0.dtd"
   xmlns="http://www.w3.org/2000/svg"
   xmlns:svg="http://www.w3.org/2000/svg"><defs
     id="defs6" /><sodipodi:namedview
     id="namedview4"
     pagecolor="#ffffff"
     bordercolor="#666666"
     borderopacity="1.0"
     inkscape:pageshadow="2"
     inkscape:pageopacity="0.0"
     inkscape:pagecheckerboard="0"
     inkscape:showpageshadow="2"
     inkscape:deskcolor="#d1d1d1"
     showgrid="false" /><g
     id="g8"
     inkscape:groupmode="layer"
     inkscape:label="ink_ext_XXXXXX"
     transform="matrix(1.3333333,0,0,-1.3333333,-1080.507,1949.5514)"><g
       id="g10"
       transform="scale(0.1)"
       inkscape:export-filename="g10.svg"
       inkscape:export-xdpi="96"
       inkscape:export-ydpi="96"><path
         d="m 9910.013,13678.765 -191.7511,-2489.536 c -10.1121,-131.282 -1275.4896,-131.282 -1285.7542,0 l -194.6483,2489.536 c -43.899,561.497 1715.4034,561.497 1672.1536,0"
         style="fill:#db7b1a;fill-opacity:1;fill-rule:nonzero;stroke:none;stroke-width:0.437445"
         id="path12" /><path
         d="m 8467.8717,11196.476 c 29.4955,-28.725 237.6847,-69.572 607.2844,-69.572 0.092,0 0.2179,0 0.3094,0 369.6693,0 577.8933,40.847 607.4236,69.528 l 191.4113,2485.144 35.7126,-2.811 -35.7126,2.811 c 7.1669,93.027 -43.1802,173.448 -149.6383,239.111 -310.6435,191.631 -992.1371,191.499 -1302.1489,-0.22 -106.0922,-65.619 -156.2083,-145.952 -148.9412,-238.847 z m 607.4979,-141.824 c -167.8759,0 -325.0341,8.829 -442.8199,24.816 -163.2446,22.181 -231.546,53.19 -235.7503,106.95 l -194.6483,2489.536 c -9.415,120.434 53.8325,226.242 182.9068,306.092 158.1689,97.814 409.0416,153.902 688.2945,153.946 0.1046,0 0.2527,0 0.3529,0 279.1004,0 529.9513,-56.001 688.3424,-153.683 129.4489,-79.85 192.9666,-185.745 183.6822,-306.311 l -191.7554,-2489.536 c -4.1302,-53.585 -71.8042,-84.506 -233.5893,-106.686 -117.2281,-16.12 -274.2773,-24.992 -442.2229,-25.124 -0.928,0 -1.8647,0 -2.7927,0"
         style="fill:#282826;fill-opacity:1;fill-rule:nonzero;stroke:none;stroke-width:0.437445"
         id="path14" /><path
         d="m 10011.6,14031.018 c -13.0353,-119.16 -126.0722,-151.091 -161.5539,-344.127 -18.4989,-100.801 -219.3557,-378.475 -219.3557,-378.475 l -166.7517,-135.411 -293.2207,-238.145 -289.0035,149.862 -576.6255,299.064 -75.4465,400.084 c 0,0 -11.8505,148.632 -72.0221,280.134 -61.6181,134.664 47.929,252.331 201.4492,264.981 65.0425,5.402 137.9839,-8.082 209.1521,-47.041 105.199,-57.537 225.673,-36.104 302.1042,131.458 129.558,284.131 406.6455,170.988 495.5196,-20.16 127.2575,-273.765 235.8157,-154.693 316.1287,-116.129 108.8893,52.355 209.2174,22.751 270.243,-47.216 44.1081,-50.51 67.7438,-121.971 59.3828,-198.879"
         style="fill:#7bad50;fill-opacity:1;fill-rule:nonzero;stroke:none;stroke-width:0.437445"
         id="path16" /><path
         d="m 8337.534,13408.25 828.7836,-429.819 437.7703,355.503 c 56.5076,78.533 196.4564,284.966 210.1585,359.633 20.8603,113.494 67.4344,176.653 104.8592,227.339 28.7417,38.959 51.4406,69.748 56.3028,114.109 v 0 c 6.9273,63.731 -11.4845,125.924 -50.517,170.637 -56.7951,65.092 -141.7394,79.411 -227.2371,38.3 -9.6067,-4.612 -20.3811,-10.937 -31.7828,-17.657 -42.5615,-25.035 -100.8422,-59.382 -167.353,-38.475 -60.982,19.15 -115.1587,81.255 -165.6364,189.83 -46.0077,98.956 -146.2749,170.593 -238.6171,170.593 -0.2222,0 -0.44,0 -0.6666,0 -79.7641,-0.308 -145.5342,-52.224 -190.1914,-150.169 -41.2327,-90.392 -96.9517,-147.929 -165.6147,-170.944 -59.0693,-19.853 -123.711,-12.035 -186.9324,22.532 -60.5768,33.161 -125.8851,47.962 -188.8189,42.736 -74.976,-6.193 -139.6787,-41.331 -168.8518,-91.709 -21.2045,-36.587 -22.0715,-78.577 -2.5052,-121.313 58.9953,-128.91 73.3292,-270.954 75.0719,-290.499 z m 837.5843,-516.916 -902.483,468.031 -79.2849,421.562 c -0.1133,1.406 -12.1859,144.02 -68.785,267.704 -29.539,64.521 -27.5001,131.678 5.7379,189.084 41.5943,71.812 126.0027,119.643 225.795,127.856 77.089,6.325 156.4567,-11.375 229.4939,-51.388 31.4125,-17.174 79.3372,-34.127 129.2006,-17.437 48.0903,16.163 90.4339,61.798 122.452,131.985 56.5424,123.992 147.4862,192.51 256.0835,192.905 0.3093,0 0.6317,0 0.9411,0 121.1013,0 246.2153,-87.361 304.5483,-212.802 40.736,-87.668 81.5678,-138.441 121.3584,-150.915 35.852,-11.288 71.3686,9.619 108.9764,31.755 12.761,7.511 24.8163,14.626 37.1678,20.556 114.8406,55.254 234.8745,33.732 313.2358,-56.088 52.5119,-60.129 77.3899,-142.922 68.2359,-227.12 v -0.04 c -7.019,-64.17 -37.734,-105.808 -70.2535,-149.862 -36.3356,-49.236 -73.9086,-100.186 -91.6886,-196.902 -19.44,-105.983 -204.6777,-364.332 -225.7341,-393.452 l -2.8362,-3.909 -482.1573,-391.519"
         style="fill:#282826;fill-opacity:1;fill-rule:nonzero;stroke:none;stroke-width:0.437445"
         id="path18" /><path
         d="m 10011.6,14031.018 c -13.0353,-119.16 -126.0722,-151.091 -161.5539,-344.127 -18.4989,-100.801 -219.3557,-378.475 -219.3557,-378.475 l -166.7517,-135.411 -582.2242,-88.283 -576.6255,299.064 -75.4465,400.084 c 0,0 -11.8505,148.632 -72.0221,280.134 -61.6181,134.664 47.929,252.331 201.4492,264.981 -69.7173,-55.825 -125.7413,-119.995 -78.9973,-158.427 95.9845,-78.752 146.9589,-161.413 220.9328,-169.758 295.0767,-33.293 575.3797,575.816 687.8153,328.185 125.7021,-276.84 718.2648,32.677 568.1342,-361.478 -23.2043,-60.919 146.4535,-50.817 195.2626,262.39 44.1081,-50.51 67.7438,-121.971 59.3828,-198.879"
         style="fill:#517c28;fill-opacity:1;fill-rule:nonzero;stroke:none;stroke-width:0.437445"
         id="path20" /><path
         d="m 8337.534,13408.25 828.7836,-429.819 437.7703,355.503 c 56.5076,78.533 196.4564,284.966 210.1585,359.633 20.8603,113.494 67.4344,176.653 104.8592,227.339 28.7417,38.959 51.4406,69.748 56.3028,114.109 v 0 c 6.9273,63.731 -11.4845,125.924 -50.517,170.637 -56.7951,65.092 -141.7394,79.411 -227.2371,38.3 -9.6067,-4.612 -20.3811,-10.937 -31.7828,-17.657 -42.5615,-25.035 -100.8422,-59.382 -167.353,-38.475 -60.982,19.15 -115.1587,81.255 -165.6364,189.83 -46.0077,98.956 -146.2749,170.593 -238.6171,170.593 -0.2222,0 -0.44,0 -0.6666,0 -79.7641,-0.308 -145.5342,-52.224 -190.1914,-150.169 -41.2327,-90.392 -96.9517,-147.929 -165.6147,-170.944 -59.0693,-19.853 -123.711,-12.035 -186.9324,22.532 -60.5768,33.161 -125.8851,47.962 -188.8189,42.736 -74.976,-6.193 -139.6787,-41.331 -168.8518,-91.709 -21.2045,-36.587 -22.0715,-78.577 -2.5052,-121.313 58.9953,-128.91 73.3292,-270.954 75.0719,-290.499 z m 837.5843,-516.916 -902.483,468.031 -79.2849,421.562 c -0.1133,1.406 -12.1859,144.02 -68.785,267.704 -29.539,64.521 -27.5001,131.678 5.7379,189.084 41.5943,71.812 126.0027,119.643 225.795,127.856 77.089,6.325 156.4567,-11.375 229.4939,-51.388 31.4125,-17.174 79.3372,-34.127 129.2006,-17.437 48.0903,16.163 90.4339,61.798 122.452,131.985 56.5424,123.992 147.4862,192.51 256.0835,192.905 0.3093,0 0.6317,0 0.9411,0 121.1013,0 246.2153,-87.361 304.5483,-212.802 40.736,-87.668 81.5678,-138.441 121.3584,-150.915 35.852,-11.288 71.3686,9.619 108.9764,31.755 12.761,7.511 24.8163,14.626 37.1678,20.556 114.8406,55.254 234.8745,33.732 313.2358,-56.088 52.5119,-60.129 77.3899,-142.922 68.2359,-227.12 v -0.04 c -7.019,-64.17 -37.734,-105.808 -70.2535,-149.862 -36.3356,-49.236 -73.9086,-100.186 -91.6886,-196.902 -19.44,-105.983 -204.6777,-364.332 -225.7341,-393.452 l -2.8362,-3.909 -482.1573,-391.519"
         style="fill:#282826;fill-opacity:1;fill-rule:nonzero;stroke:none;stroke-width:0.437445"
         id="path22" /><path
         d="m 8294.99,13861.744 c 0,0 -83.4674,142.526 74.2745,150.871 157.9816,8.345 156.7835,144.767 268.7399,43.439 109.9567,-99.527 278.3379,-125.968 188.222,-242.581 -88.2293,-114.153 -143.5954,-275.522 -208.5943,-283.164 -64.9032,-7.642 -276.5691,-26.441 -276.3643,-24.86 0.2091,1.538 -46.2778,356.295 -46.2778,356.295"
         style="fill:#8c4617;fill-opacity:1;fill-rule:nonzero;stroke:none;stroke-width:0.437445"
         id="path24" /><path
         d="m 8567.7555,14067.649 c -14.2728,0 -27.1341,-9.179 -46.4782,-22.927 -31.761,-22.62 -75.2592,-53.585 -150.6883,-57.581 -24.7771,-1.274 -56.5991,-7.16 -67.5303,-27.715 -13.9548,-26.222 5.7205,-71.066 13.7109,-84.725 l 2.6184,-4.481 0.6753,-5.138 c 27.2779,-208.146 38.6926,-295.375 43.3457,-332.84 55.048,4.26 198.2644,17.129 251.2909,23.366 27.6874,3.25 66.611,71.154 100.9556,131.063 26.2583,45.81 56.0196,97.726 90.6168,142.483 15.5233,20.072 22.1587,36.938 19.732,50.027 -4.8971,26.441 -47.6372,52.267 -92.8868,79.586 -35.9087,21.697 -76.6055,46.25 -112.0131,78.313 -24.0669,21.785 -39.3854,30.569 -53.3489,30.569 z m -225.1545,-587.674 c -11.3016,0 -14.0289,2.108 -19.366,7.554 l -8.6743,8.916 1.2242,9.268 c -3.0759,25.387 -28.0403,216.579 -45.2409,347.861 -9.8768,18.535 -38.5097,80.289 -12.0596,130.009 17.7147,33.249 54.5383,51.608 109.4557,54.507 60.8338,3.206 94.4769,27.144 124.1554,48.27 41.359,29.472 84.1253,59.91 162.8045,-11.332 31.7915,-28.769 68.6064,-50.993 104.2188,-72.515 57.7013,-34.83 107.5387,-64.96 116.6139,-113.977 5.2804,-28.461 -4.3873,-58.153 -29.5522,-90.743 -32.4493,-41.989 -61.2869,-92.28 -86.7262,-136.641 -48.038,-83.803 -85.9769,-149.949 -138.8901,-156.186 -35.0896,-4.129 -109.5254,-11.156 -162.6041,-15.9 -30.5107,-2.723 -59.0346,-5.182 -80.0169,-6.851 -17.2877,-1.362 -28.0838,-2.24 -35.3422,-2.24"
         style="fill:#282826;fill-opacity:1;fill-rule:nonzero;stroke:none;stroke-width:0.437445"
         id="path26" /><path
         d="m 9681.7128,14042.438 c -9.219,-29.427 -16.5253,-60.085 -22.7119,-90.611 -11.1273,-54.111 -18.8954,-107.696 -28.4412,-152.716 l -238.7738,-71.724 -140.158,-19.853 c -41.9994,83.539 -85.9115,170.812 -85.9115,170.812 0,0 -68.2012,56.352 -45.1625,114.109 8.0339,20.028 27.06,40.189 63.7268,58.328 56.4857,27.759 83.6721,64.566 104.2144,95.97 l 0.065,0.04 c 31.7959,48.709 47.6633,84.373 132.124,53.057 137.7225,-51.037 307.8988,-7.994 261.0284,-157.416"
         style="fill:#8c4617;fill-opacity:1;fill-rule:nonzero;stroke:none;stroke-width:0.437445"
         id="path28" /><path
         d="m 9308.1791,14130.545 c -24.1802,-36.63 -54.8564,-74.228 -112.8191,-102.689 -27.5611,-13.616 -44.8575,-28.769 -51.3535,-44.976 -15.6583,-39.222 37.207,-84.374 37.7472,-84.813 l 4.1172,-3.382 2.4049,-4.788 c 0,0 38.4095,-76.336 77.7426,-154.561 l 120.3694,16.998 222.4446,66.849 c 3.5552,18.052 6.936,37.334 10.4738,57.494 4.5702,26.046 9.2973,52.97 14.9263,80.333 7.1582,35.313 14.8044,65.795 23.3611,93.115 v 0 c 8.4217,26.836 8.9619,46.469 1.6164,58.328 -13.8895,22.444 -62.5984,29.779 -114.1653,37.597 -41.5377,6.281 -88.6171,13.396 -133.0825,29.867 -60.163,22.312 -69.2817,8.125 -96.3243,-33.908 -1.9301,-3.031 -3.9081,-6.105 -5.947,-9.224 z m -70.9373,-450.814 -8.1777,16.251 c -36.4271,72.471 -74.292,147.754 -83.6939,166.464 -16.7911,15.373 -74.2789,74.36 -48.282,139.496 11.3233,28.286 36.9107,52.399 76.0565,71.725 50.6346,24.859 75.1895,58.02 94.233,87.141 l 1.4595,2.196 c 1.477,2.284 2.9278,4.524 4.3525,6.72 28.5762,44.449 58.1413,90.435 156.2301,54.068 39.6163,-14.714 82.0689,-21.127 123.1273,-27.32 66.1796,-10.014 123.3407,-18.623 149.586,-61.051 15.7585,-25.431 16.9653,-58.372 3.6989,-100.669 -8.0208,-25.607 -15.2313,-54.375 -22.0497,-88.02 -5.4896,-26.704 -10.1513,-53.277 -14.6563,-78.971 -4.6051,-26.221 -8.9532,-50.993 -13.8284,-73.965 l -3.1369,-14.801 -256.8589,-76.864 -158.06,-22.4"
         style="fill:#282826;fill-opacity:1;fill-rule:nonzero;stroke:none;stroke-width:0.437445"
         id="path30" /><path
         d="m 9659.0009,13951.827 c -11.1273,-54.111 -18.8954,-107.696 -28.4412,-152.716 l -238.7738,-71.724 -140.158,-19.853 c -41.9994,83.539 -85.9115,170.812 -85.9115,170.812 0,0 -68.2012,56.352 -45.1625,114.109 l 63.7268,58.328 104.2144,95.97 0.065,0.04 c 0,0 74.4576,-86.043 25.936,-125.617 -48.5172,-39.486 -96.6423,-74.799 -41.2109,-104.534 55.4968,-29.735 79.1978,-38.827 154.775,0 75.6426,38.915 118.2346,70.538 187.0283,50.861 16.5906,-4.743 31.273,-10.189 43.9121,-15.68"
         style="fill:#703208;fill-opacity:1;fill-rule:nonzero;stroke:none;stroke-width:0.437445"
         id="path32" /><path
         d="m 9308.1791,14130.545 c -24.1802,-36.63 -54.8564,-74.228 -112.8191,-102.689 -27.5611,-13.616 -44.8575,-28.769 -51.3535,-44.976 -15.6583,-39.222 37.207,-84.374 37.7472,-84.813 l 4.1172,-3.382 2.4049,-4.788 c 0,0 38.4095,-76.336 77.7426,-154.561 l 120.3694,16.998 222.4446,66.849 c 3.5552,18.052 6.936,37.334 10.4738,57.494 4.5702,26.046 9.2973,52.97 14.9263,80.333 7.1582,35.313 14.8044,65.795 23.3611,93.115 v 0 c 8.4217,26.836 8.9619,46.469 1.6164,58.328 -13.8895,22.444 -62.5984,29.779 -114.1653,37.597 -41.5377,6.281 -88.6171,13.396 -133.0825,29.867 -60.163,22.312 -69.2817,8.125 -96.3243,-33.908 -1.9301,-3.031 -3.9081,-6.105 -5.947,-9.224 z m -70.9373,-450.814 -8.1777,16.251 c -36.4271,72.471 -74.292,147.754 -83.6939,166.464 -16.7911,15.373 -74.2789,74.36 -48.282,139.496 11.3233,28.286 36.9107,52.399 76.0565,71.725 50.6346,24.859 75.1895,58.02 94.233,87.141 l 1.4595,2.196 c 1.477,2.284 2.9278,4.524 4.3525,6.72 28.5762,44.449 58.1413,90.435 156.2301,54.068 39.6163,-14.714 82.0689,-21.127 123.1273,-27.32 66.1796,-10.014 123.3407,-18.623 149.586,-61.051 15.7585,-25.431 16.9653,-58.372 3.6989,-100.669 -8.0208,-25.607 -15.2313,-54.375 -22.0497,-88.02 -5.4896,-26.704 -10.1513,-53.277 -14.6563,-78.971 -4.6051,-26.221 -8.9532,-50.993 -13.8284,-73.965 l -3.1369,-14.801 -256.8589,-76.864 -158.06,-22.4"
         style="fill:#282826;fill-opacity:1;fill-rule:nonzero;stroke:none;stroke-width:0.437445"
         id="path34" /><path
         d="m 8720.9925,13780.664 c 0,0 -158.3388,27.363 -76.6882,155 83.5807,130.624 -25.4872,217.282 119.7551,242.888 145.9046,25.738 270.3912,149.334 311.7808,-3.162 40.3003,-148.456 140.2581,-301.041 105.9222,-358.535 -33.9742,-56.922 -147.6559,-234.894 -148.7974,-233.708 -1.1415,1.186 -311.9725,197.517 -311.9725,197.517"
         style="fill:#8c4617;fill-opacity:1;fill-rule:nonzero;stroke:none;stroke-width:0.437445"
         id="path36" /><path
         d="m 8999.5876,14224.67 c -26.2191,0 -62.6027,-14.538 -100.6158,-29.647 -39.1676,-15.636 -83.572,-33.337 -130.5556,-41.594 -61.9318,-10.937 -62.0233,-25.782 -62.3195,-75.063 -0.244,-39.705 -0.5751,-94.08 -40.5356,-156.537 -18.2898,-28.593 -23.6312,-52.092 -15.8849,-69.88 12.7437,-29.208 60.0323,-43.483 75.5947,-46.162 l 4.9188,-0.878 4.2348,-2.636 c 182.8676,-115.514 259.142,-163.74 291.5609,-184.472 30.3581,46.294 106.0007,165.103 134.102,212.187 14.6345,24.508 -17.7583,101.635 -46.3345,169.714 -21.8144,51.96 -46.5392,110.859 -62.3151,168.968 -7.5024,27.627 -18.0851,45.064 -31.4561,51.827 -5.7596,2.899 -12.6303,4.173 -20.3941,4.173 z m 23.8229,-668.271 -6.6876,6.983 c -20.9126,13.484 -189.5815,120.127 -305.189,193.125 -20.1153,4.348 -85.1534,22.136 -108.1747,74.93 -15.0091,34.435 -8.3868,74.141 19.6883,118.019 31.9745,49.983 32.2316,92.104 32.4581,129.218 0.3181,52.486 0.6492,106.73 104.1927,125.001 41.9036,7.379 81.9468,23.323 120.6787,38.739 62.6856,24.992 116.8187,46.558 162.2252,23.674 27.1602,-13.659 46.0121,-41.154 57.6316,-83.978 14.8872,-54.815 38.9105,-112.045 60.1063,-162.511 39.6773,-94.52 71.0157,-169.143 43.093,-215.92 -18.3203,-30.658 -58.1588,-93.861 -86.7088,-138.662 -67.3821,-105.676 -67.3821,-105.676 -80.91,-107.213 l -12.4038,-1.405"
         style="fill:#282826;fill-opacity:1;fill-rule:nonzero;stroke:none;stroke-width:0.437445"
         id="path38" /><path
         d="m 8699.8316,14152.419 c 0,0 16.3903,-47.041 110.998,-94.74 118.9098,-59.997 163.1662,-34.918 183.8566,-28.813 20.6904,6.105 81.154,146.524 81.154,146.524 59.9015,-25.563 87.5671,-247.676 87.5671,-247.676 l 18.3551,-110.859 c 62.9862,-94.476 -86.8613,8.302 -105.7088,-7.071 -18.8431,-15.373 -298.3487,28.988 -298.3487,28.988 l -111.072,247.808 33.1987,65.839"
         style="fill:#703208;fill-opacity:1;fill-rule:nonzero;stroke:none;stroke-width:0.437445"
         id="path40" /><path
         d="m 8999.5876,14224.67 c -26.2191,0 -62.6027,-14.538 -100.6158,-29.647 -39.1676,-15.636 -83.572,-33.337 -130.5556,-41.594 -61.9318,-10.937 -62.0233,-25.782 -62.3195,-75.063 -0.244,-39.705 -0.5751,-94.08 -40.5356,-156.537 -18.2898,-28.593 -23.6312,-52.092 -15.8849,-69.88 12.7437,-29.208 60.0323,-43.483 75.5947,-46.162 l 4.9188,-0.878 4.2348,-2.636 c 182.8676,-115.514 259.142,-163.74 291.5609,-184.472 30.3581,46.294 106.0007,165.103 134.102,212.187 14.6345,24.508 -17.7583,101.635 -46.3345,169.714 -21.8144,51.96 -46.5392,110.859 -62.3151,168.968 -7.5024,27.627 -18.0851,45.064 -31.4561,51.827 -5.7596,2.899 -12.6303,4.173 -20.3941,4.173 z m 23.8229,-668.271 -6.6876,6.983 c -20.9126,13.484 -189.5815,120.127 -305.189,193.125 -20.1153,4.348 -85.1534,22.136 -108.1747,74.93 -15.0091,34.435 -8.3868,74.141 19.6883,118.019 31.9745,49.983 32.2316,92.104 32.4581,129.218 0.3181,52.486 0.6492,106.73 104.1927,125.001 41.9036,7.379 81.9468,23.323 120.6787,38.739 62.6856,24.992 116.8187,46.558 162.2252,23.674 27.1602,-13.659 46.0121,-41.154 57.6316,-83.978 14.8872,-54.815 38.9105,-112.045 60.1063,-162.511 39.6773,-94.52 71.0157,-169.143 43.093,-215.92 -18.3203,-30.658 -58.1588,-93.861 -86.7088,-138.662 -67.3821,-105.676 -67.3821,-105.676 -80.91,-107.213 l -12.4038,-1.405"
         style="fill:#282826;fill-opacity:1;fill-rule:nonzero;stroke:none;stroke-width:0.437445"
         id="path42" /><path
         d="m 9748.4676,13473.167 c -35.6168,-53.19 -154.1825,-219.39 -155.9601,-219.39 -1.0499,1.142 -292.162,185.438 -292.162,185.438 l -65.5696,146.26 c 50.0333,70.538 37.5903,127.286 45.5546,167.254 5.8598,29.121 22.6466,49.325 82.2257,59.339 142.4626,24.069 269.1232,139.759 301.4463,-2.943 31.5344,-139.013 120.6046,-282.066 84.4651,-335.958"
         style="fill:#8c4617;fill-opacity:1;fill-rule:nonzero;stroke:none;stroke-width:0.437445"
         id="path44" /><path
         d="m 9320.2561,13456.696 c 165.6931,-104.885 235.9158,-149.378 266.2696,-168.88 31.835,43.615 112.5794,157.197 140.9683,199.625 l 0.017,0.04 c 15.0222,22.4 -12.2252,94.081 -36.2616,157.328 -18.5207,48.754 -39.5204,104.007 -51.9024,158.646 -5.5114,24.333 -14.055,39.75 -25.4001,45.943 -23.1738,12.561 -69.6999,-5.008 -118.9622,-23.63 -38.6447,-14.583 -82.4478,-31.141 -128.2421,-38.871 -55.61,-9.356 -58.943,-25.914 -61.6224,-39.266 -1.7035,-8.521 -2.3309,-18.799 -3.0585,-30.702 -2.0999,-34.479 -4.9275,-80.772 -38.4269,-133.918 z m 272.2514,-228.438 h -10.9399 l -5.4416,5.842 c -20.8995,13.528 -181.4167,115.251 -289.2342,183.506 l -6.4568,4.084 -74.7102,166.684 8.4739,11.947 c 32.8982,46.381 35.277,85.34 37.3726,119.731 0.8016,13.22 1.5597,25.694 3.9603,37.685 9.0752,45.107 39.8341,68.869 102.8638,79.454 40.9626,6.94 80.5571,21.917 118.8445,36.368 62.9382,23.761 117.2935,44.273 160.6915,20.731 25.1126,-13.616 41.7032,-39.618 50.7349,-79.455 11.589,-51.125 31.9047,-104.578 49.8286,-151.75 33.9176,-89.293 60.7075,-159.788 30.9245,-204.193 -19.1264,-28.593 -59.5791,-85.999 -91.07,-130.228 -17.2137,-24.201 -33.3643,-46.689 -45.3237,-63.16 -25.5177,-35.137 -27.047,-37.246 -40.5182,-37.246"
         style="fill:#282826;fill-opacity:1;fill-rule:nonzero;stroke:none;stroke-width:0.437445"
         id="path46" /><path
         d="m 9665.7147,13650.787 -24.2935,-139.057 c 0,0 -23.897,-86.131 -42.7227,-101.547 -18.83,-15.373 -298.353,29.032 -298.353,29.032 l -65.5696,146.26 c 50.0333,70.538 37.5903,127.286 45.5546,167.254 l 82.2257,59.339 c 0,0 39.2372,-4.48 65.5043,-135.85 26.3324,-131.415 50.2294,-143.581 70.898,-137.476 20.7384,6.105 79.5942,148.149 79.5942,148.149 l 87.162,-36.104"
         style="fill:#703208;fill-opacity:1;fill-rule:nonzero;stroke:none;stroke-width:0.437445"
         id="path48" /><path
         d="m 9320.2561,13456.696 c 165.6931,-104.885 235.9158,-149.378 266.2696,-168.88 31.835,43.615 112.5794,157.197 140.9683,199.625 l 0.017,0.04 c 15.0222,22.4 -12.2252,94.081 -36.2616,157.328 -18.5207,48.754 -39.5204,104.007 -51.9024,158.646 -5.5114,24.333 -14.055,39.75 -25.4001,45.943 -23.1738,12.561 -69.6999,-5.008 -118.9622,-23.63 -38.6447,-14.583 -82.4478,-31.141 -128.2421,-38.871 -55.61,-9.356 -58.943,-25.914 -61.6224,-39.266 -1.7035,-8.521 -2.3309,-18.799 -3.0585,-30.702 -2.0999,-34.479 -4.9275,-80.772 -38.4269,-133.918 z m 272.2514,-228.438 h -10.9399 l -5.4416,5.842 c -20.8995,13.528 -181.4167,115.251 -289.2342,183.506 l -6.4568,4.084 -74.7102,166.684 8.4739,11.947 c 32.8982,46.381 35.277,85.34 37.3726,119.731 0.8016,13.22 1.5597,25.694 3.9603,37.685 9.0752,45.107 39.8341,68.869 102.8638,79.454 40.9626,6.94 80.5571,21.917 118.8445,36.368 62.9382,23.761 117.2935,44.273 160.6915,20.731 25.1126,-13.616 41.7032,-39.618 50.7349,-79.455 11.589,-51.125 31.9047,-104.578 49.8286,-151.75 33.9176,-89.293 60.7075,-159.788 30.9245,-204.193 -19.1264,-28.593 -59.5791,-85.999 -91.07,-130.228 -17.2137,-24.201 -33.3643,-46.689 -45.3237,-63.16 -25.5177,-35.137 -27.047,-37.246 -40.5182,-37.246"
         style="fill:#282826;fill-opacity:1;fill-rule:nonzero;stroke:none;stroke-width:0.437445"
         id="path50" /><path
         d="m 9337.5351,13444.881 c -6.5439,-268.011 -237.3536,-475.454 -515.8179,-475.454 -278.4686,0 -519.9306,207.443 -540.242,475.454 -21.4006,282.374 208.5247,522.626 514.6066,522.626 306.0821,0 548.3458,-240.252 541.4533,-522.626"
         style="fill:#f85428;fill-opacity:1;fill-rule:nonzero;stroke:none;stroke-width:0.437445"
         id="path52" /><path
         d="m 8796.0818,13933.512 c -141.6174,0 -274.8481,-56.615 -365.5303,-155.264 -83.7114,-91.094 -124.7088,-208.541 -115.4462,-330.776 18.8692,-248.993 241.3966,-444.05 506.6119,-444.05 264.283,0 476.0448,194.267 482.1007,442.294 2.9844,122.278 -44.1038,239.945 -132.5815,331.39 -96.1979,99.395 -232.9358,156.406 -375.1546,156.406 z m 25.6354,-998.081 c -300.2569,0 -552.3321,222.64 -573.8721,506.859 -10.709,141.296 36.6058,277.059 133.2263,382.164 103.4041,112.528 254.6675,177.049 415.0104,177.049 160.2865,0 314.6214,-64.477 423.4322,-176.917 101.2867,-104.622 155.1758,-239.77 151.7383,-380.539 v 0 c -3.3809,-138.398 -62.6855,-267.177 -166.9914,-362.576 -102.9684,-94.168 -238.8262,-146.04 -382.5437,-146.04"
         style="fill:#282826;fill-opacity:1;fill-rule:nonzero;stroke:none;stroke-width:0.437445"
         id="path54" /><path
         d="m 8809.5051,13444.881 -9.842,383.087 c 204.8172,5.314 313.0921,-90.963 363.7442,-242.932 l -353.9022,-140.155"
         style="fill:#ce3d21;fill-opacity:1;fill-rule:nonzero;stroke:none;stroke-width:0.437445"
         id="path56" /><path
         d="m 8825.6209,13802.581 8.2386,-320.674 297.338,117.755 c -52.2597,133.522 -152.5922,200.152 -305.5766,202.919 z m -40.4703,-394.726 -11.4278,444.972 25.2955,0.659 c 198.4781,5.051 329.0903,-82.485 388.3644,-260.369 l 7.6636,-22.971 -409.8957,-162.291"
         style="fill:#282826;fill-opacity:1;fill-rule:nonzero;stroke:none;stroke-width:0.437445"
         id="path58" /><path
         d="m 8810.8296,13393.273 382.3999,76.6 c 43.594,-179.07 -28.2233,-289.885 -165.2356,-362.4 l -217.1643,285.8"
         style="fill:#ce3d21;fill-opacity:1;fill-rule:nonzero;stroke:none;stroke-width:0.437445"
         id="path60" /><path
         d="m 8855.6304,13376.275 179.208,-235.86 c 119.8204,70.011 164.4165,166.068 138.999,299.591 z m 165.2445,-301.348 -254.8462,335.387 445.996,89.338 5.7684,-23.674 c 42.4787,-174.502 -17.4228,-306.048 -178.0402,-391.081 l -18.878,-9.97"
         style="fill:#282826;fill-opacity:1;fill-rule:nonzero;stroke:none;stroke-width:0.437445"
         id="path62" /><path
         d="m 8777.6874,13427.4 -388.8696,70.231 c 20.6817,189.128 132.8559,273.326 298.6536,293.662 l 90.216,-363.893"
         style="fill:#ce3d21;fill-opacity:1;fill-rule:nonzero;stroke:none;stroke-width:0.437445"
         id="path64" /><path
         d="m 8417.1064,13518.406 326.5632,-58.943 -75.2112,303.368 c -148.2616,-24.2 -228.8274,-102.513 -251.352,-244.425 z m 394.5989,-123.025 -450.6228,81.343 2.5923,23.718 c 20.3636,186.185 128.2769,292.564 320.7468,316.15 l 22.1761,2.723 105.1076,-423.934"
         style="fill:#282826;fill-opacity:1;fill-rule:nonzero;stroke:none;stroke-width:0.437445"
         id="path66" /><path
         d="m 8977.612,13691.239 c -20.4465,-15.592 -81.6943,-50.115 -98.6161,-128.603 0,0 74.0133,27.846 98.6161,128.603"
         style="fill:#f25d49;fill-opacity:1;fill-rule:nonzero;stroke:none;stroke-width:0.437445"
         id="path68" /><path
         d="m 9046.8196,13626.937 c -23.7489,-9.707 -111.7168,-16.822 -148.2138,-88.195 0,0 110.0004,18.359 148.2138,88.195"
         style="fill:#f25d49;fill-opacity:1;fill-rule:nonzero;stroke:none;stroke-width:0.437445"
         id="path70" /><path
         d="m 8881.2353,13727.387 c -14.5735,-21.259 -35.0286,-73.394 -26.7159,-153.244 0,0 34.6714,49.808 26.7159,153.244"
         style="fill:#f25d49;fill-opacity:1;fill-rule:nonzero;stroke:none;stroke-width:0.437445"
         id="path72" /><path
         d="m 9132.2693,13301.784 c -21.0738,14.713 -72.7889,62.544 -151.9997,54.199 0,0 49.3668,-62.149 151.9997,-54.199"
         style="fill:#f25d49;fill-opacity:1;fill-rule:nonzero;stroke:none;stroke-width:0.437445"
         id="path74" /><path
         d="m 9093.3632,13215.389 c -16.582,19.721 -50.8307,101.723 -129.4838,114.329 0,0 51.7456,-99.571 129.4838,-114.329"
         style="fill:#f25d49;fill-opacity:1;fill-rule:nonzero;stroke:none;stroke-width:0.437445"
         id="path76" /><path
         d="m 9136.1861,13405.395 c -24.5811,7.291 -80.1214,10.585 -152.7447,-22.4 0,0 57.7579,-17.613 152.7447,22.4"
         style="fill:#f25d49;fill-opacity:1;fill-rule:nonzero;stroke:none;stroke-width:0.437445"
         id="path78" /><path
         d="m 8560.3969,13627.991 c 12.6042,-22.488 38.4356,-88.283 113.3201,-115.602 0,0 -17.5143,77.654 -113.3201,115.602"
         style="fill:#f25d49;fill-opacity:1;fill-rule:nonzero;stroke:none;stroke-width:0.437445"
         id="path80" /><path
         d="m 8632.798,13688.604 c 6.3914,-25.036 1.721,-113.846 67.0336,-159.832 0,0 -3.468,112.396 -67.0336,159.832"
         style="fill:#f25d49;fill-opacity:1;fill-rule:nonzero;stroke:none;stroke-width:0.437445"
         id="path82" /><path
         d="m 8512.0409,13536.502 c 18.9564,-17.393 67.5215,-44.756 147.1288,-47.04 0,0 -44.3521,41.242 -147.1288,47.04"
         style="fill:#f25d49;fill-opacity:1;fill-rule:nonzero;stroke:none;stroke-width:0.437445"
         id="path84" /><path
         d="m 9746.2935,13207.791 c -80.4481,-169.187 -575.5755,-272.931 -575.5755,-272.931 0,0 -8.2954,4.612 -21.1305,12.518 -62.7377,38.739 -234.1645,157.987 -75.3768,218.511 194.0732,74.009 129.2921,249.301 267.9383,275.917 139.365,26.749 291.6391,-75.282 299.2722,69.924 9.2843,175.161 17.1832,242.273 174.3283,304.159 34.362,13.572 58.259,8.916 72.9413,-10.19 53.3881,-69.177 -14.0898,-328.008 -142.3973,-597.908"
         style="fill:#7bad50;fill-opacity:1;fill-rule:nonzero;stroke:none;stroke-width:0.437445"
         id="path86" /><path
         d="m 9395.9117,13409.831 c -15.8456,0 -31.5518,-1.142 -46.9574,-4.084 -44.5656,-8.565 -58.1501,-34.962 -82.2867,-89.118 -27.8922,-62.589 -62.6028,-140.462 -179.5782,-185.043 -25.3957,-9.706 -41.102,-21.302 -42.0125,-31.053 -2.0085,-21.389 39.7818,-70.143 123.5367,-121.883 2.9932,-1.844 5.7336,-3.513 8.1472,-4.919 142.0096,31.36 479.0596,128.691 536.7043,249.916 150.3746,316.325 176.3106,520.869 146.4927,559.476 -4.2391,5.535 -14.6344,5.008 -30.9593,-1.405 -134.6031,-53.014 -141.9225,-96.453 -151.2199,-271.92 -2.1784,-41.463 -14.6083,-71.11 -37.9912,-90.699 -39.1937,-32.766 -95.466,-25.211 -155.0407,-17.218 -29.3299,3.953 -59.3177,7.95 -88.835,7.95 z m -230.9229,-513.622 -11.7677,6.5 c -0.366,0.176 -9.1885,5.051 -22.5943,13.309 -75.9258,46.908 -164.9089,118.15 -158.0469,191.411 3.8035,40.584 33.6605,71.812 88.7521,92.807 88.7043,33.82 113.0936,88.547 138.9163,146.48 24.0408,53.936 51.2881,115.031 135.0866,131.15 55.6842,10.673 110.5884,3.294 159.0359,-3.206 41.4157,-5.578 84.2516,-11.332 98.9166,0.922 8.4522,7.072 11.0706,24.641 11.7764,38.125 9.7113,183.154 21.418,267.045 197.428,336.397 65.5435,25.826 100.18,-2.679 114.9844,-21.961 74.9455,-97.067 -27.6787,-403.422 -138.3499,-636.208 v -0.04 c -85.7591,-180.299 -548.5155,-281.978 -600.9974,-292.959 l -13.1401,-2.723"
         style="fill:#282826;fill-opacity:1;fill-rule:nonzero;stroke:none;stroke-width:0.437445"
         id="path88" /><path
         d="m 9746.2935,13207.791 c -80.4481,-169.187 -575.5755,-272.931 -575.5755,-272.931 0,0 -8.2954,4.612 -21.1305,12.518 l 19.8147,139.496 c 0,0 589.0032,190.401 719.2886,718.825 53.3881,-69.177 -14.0898,-328.008 -142.3973,-597.908"
         style="fill:#517c28;fill-opacity:1;fill-rule:nonzero;stroke:none;stroke-width:0.437445"
         id="path90" /><path
         d="m 9395.9117,13409.831 c -15.8456,0 -31.5518,-1.142 -46.9574,-4.084 -44.5656,-8.565 -58.1501,-34.962 -82.2867,-89.118 -27.8922,-62.589 -62.6028,-140.462 -179.5782,-185.043 -25.3957,-9.706 -41.102,-21.302 -42.0125,-31.053 -2.0085,-21.389 39.7818,-70.143 123.5367,-121.883 2.9932,-1.844 5.7336,-3.513 8.1472,-4.919 142.0096,31.36 479.0596,128.691 536.7043,249.916 150.3746,316.325 176.3106,520.869 146.4927,559.476 -4.2391,5.535 -14.6344,5.008 -30.9593,-1.405 -134.6031,-53.014 -141.9225,-96.453 -151.2199,-271.92 -2.1784,-41.463 -14.6083,-71.11 -37.9912,-90.699 -39.1937,-32.766 -95.466,-25.211 -155.0407,-17.218 -29.3299,3.953 -59.3177,7.95 -88.835,7.95 z m -230.9229,-513.622 -11.7677,6.5 c -0.366,0.176 -9.1885,5.051 -22.5943,13.309 -75.9258,46.908 -164.9089,118.15 -158.0469,191.411 3.8035,40.584 33.6605,71.812 88.7521,92.807 88.7043,33.82 113.0936,88.547 138.9163,146.48 24.0408,53.936 51.2881,115.031 135.0866,131.15 55.6842,10.673 110.5884,3.294 159.0359,-3.206 41.4157,-5.578 84.2516,-11.332 98.9166,0.922 8.4522,7.072 11.0706,24.641 11.7764,38.125 9.7113,183.154 21.418,267.045 197.428,336.397 65.5435,25.826 100.18,-2.679 114.9844,-21.961 74.9455,-97.067 -27.6787,-403.422 -138.3499,-636.208 v -0.04 c -85.7591,-180.299 -548.5155,-281.978 -600.9974,-292.959 l -13.1401,-2.723"
         style="fill:#282826;fill-opacity:1;fill-rule:nonzero;stroke:none;stroke-width:0.437445"
         id="path92" /><path
         d="m 9059.4978,12830.765 c 0,0 323.3566,175.117 109.9175,256.109 -216.8941,82.309 -142.9637,277.937 -298.5927,307.673 -156.5221,29.954 -327.8354,-84.155 -336.2223,78.268 -10.1556,196.726 -18.9302,272.228 -196.2254,342.108 -179.5956,70.758 -105.9354,-296.78 78.2305,-681.448 89.9546,-187.898 642.8924,-302.71 642.8924,-302.71"
         style="fill:#7bad50;fill-opacity:1;fill-rule:nonzero;stroke:none;stroke-width:0.437445"
         id="path94" /><path
         d="m 8298.7237,13782.245 c -3.9734,0 -7.4065,-0.835 -9.4847,-3.075 -12.382,-13.484 -24.4547,-73.086 8.8312,-210.912 28.8594,-119.512 84.1035,-267.529 155.5505,-416.775 64.3846,-134.489 440.9551,-242.273 599.3637,-276.928 74.2092,42.78 150.3006,107.741 148.1745,139.716 -0.6884,10.322 -18.4031,23.279 -46.2212,33.82 -130.9303,49.719 -169.3659,136.685 -200.2468,206.564 -26.6376,60.261 -41.6554,89.645 -91.5276,99.22 -49.5323,9.443 -101.9184,2.46 -152.5704,-4.304 -67.0815,-9.004 -130.438,-17.437 -174.5069,19.457 -26.2235,21.961 -40.1391,55.21 -42.531,101.635 -10.1774,197.078 -18.3551,245.875 -170.1413,305.653 -5.507,2.196 -16.2988,5.929 -24.69,5.929 z m 767.0871,-995.094 -14.6039,3.074 c -5.751,1.186 -142.5892,29.823 -292.8723,82.31 -209.0824,72.998 -336.5098,154.737 -378.7445,242.932 -128.3336,268.055 -244.7993,617.454 -150.6752,719.967 16.8956,18.404 55.5316,45.196 124.4212,18.052 198.6043,-78.225 211.6746,-172.569 222.3096,-378.518 0.7711,-14.934 3.651,-34.391 12.9876,-42.209 16.3902,-13.748 64.5632,-7.291 111.1504,-1.055 54.4511,7.291 116.1651,15.505 178.6981,3.558 94.3464,-18.052 124.6043,-86.482 151.294,-146.919 28.4586,-64.389 55.34,-125.221 154.1171,-162.686 62.8162,-23.85 96.2241,-59.47 99.2869,-105.896 6.9665,-105.588 -168.9084,-206.345 -204.2376,-225.495 l -13.1314,-7.115"
         style="fill:#282826;fill-opacity:1;fill-rule:nonzero;stroke:none;stroke-width:0.437445"
         id="path96" /><path
         d="m 8399.5747,13207.791 c 80.4481,-169.187 575.5757,-272.931 575.5757,-272.931 0,0 8.2953,4.612 21.1304,12.518 l 292.2622,46.25 c 0,0 -901.0802,283.647 -1031.3656,812.071 -53.3881,-69.177 14.0898,-328.008 142.3973,-597.908"
         style="fill:#517c28;fill-opacity:1;fill-rule:nonzero;stroke:none;stroke-width:0.437445"
         id="path98" /><path
         d="m 8298.7237,13782.245 c -3.9734,0 -7.4065,-0.835 -9.4847,-3.075 -12.382,-13.484 -24.4547,-73.086 8.8312,-210.912 28.8594,-119.512 84.1035,-267.529 155.5505,-416.775 64.3846,-134.489 440.9551,-242.273 599.3637,-276.928 74.2092,42.78 150.3006,107.741 148.1745,139.716 -0.6884,10.322 -18.4031,23.279 -46.2212,33.82 -130.9303,49.719 -169.3659,136.685 -200.2468,206.564 -26.6376,60.261 -41.6554,89.645 -91.5276,99.22 -49.5323,9.443 -101.9184,2.46 -152.5704,-4.304 -67.0815,-9.004 -130.438,-17.437 -174.5069,19.457 -26.2235,21.961 -40.1391,55.21 -42.531,101.635 -10.1774,197.078 -18.3551,245.875 -170.1413,305.653 -5.507,2.196 -16.2988,5.929 -24.69,5.929 z m 767.0871,-995.094 -14.6039,3.074 c -5.751,1.186 -142.5892,29.823 -292.8723,82.31 -209.0824,72.998 -336.5098,154.737 -378.7445,242.932 -128.3336,268.055 -244.7993,617.454 -150.6752,719.967 16.8956,18.404 55.5316,45.196 124.4212,18.052 198.6043,-78.225 211.6746,-172.569 222.3096,-378.518 0.7711,-14.934 3.651,-34.391 12.9876,-42.209 16.3902,-13.748 64.5632,-7.291 111.1504,-1.055 54.4511,7.291 116.1651,15.505 178.6981,3.558 94.3464,-18.052 124.6043,-86.482 151.294,-146.919 28.4586,-64.389 55.34,-125.221 154.1171,-162.686 62.8162,-23.85 96.2241,-59.47 99.2869,-105.896 6.9665,-105.588 -168.9084,-206.345 -204.2376,-225.495 l -13.1314,-7.115"
         style="fill:#282826;fill-opacity:1;fill-rule:nonzero;stroke:none;stroke-width:0.437445"
         id="path100" /><path
         d="m 9642.6716,12271.376 c -37.8474,-630.235 -502.5296,-1082.147 -1042.3012,-1082.147 -57.2612,0 -113.6817,4.831 -168.965,14.099 l -191.69,2451.719 c 0,0 -2.8537,71.9 0,0 21.4136,-539.141 1446.694,-655.358 1402.9562,-1383.671"
         style="fill:#f4d13b;fill-opacity:1;fill-rule:nonzero;stroke:none;stroke-width:0.437445"
         id="path102" /><path
         d="m 9598.6985,12505.612 -32.7456,-606.298 c -110.0046,-299.24 -326.8072,-526.667 -590.21,-635.857 -420.7484,150.169 -533.4194,489.246 -520.6758,1007.919 8.4435,345.534 289.6874,542.831 577.2226,722.252 243.1655,-133.391 471.9623,-282.857 566.4088,-488.016"
         style="fill:#db7b1a;fill-opacity:1;fill-rule:nonzero;stroke:none;stroke-width:0.437445"
         id="path104" /><path
         d="m 8465.4319,11235.259 c 44.7704,-6.193 90.0375,-9.311 134.9385,-9.311 537.6237,0 970.0874,450.419 1005.9569,1047.668 22.3634,372.326 -370.6365,578.056 -750.6969,776.978 -226.1827,118.37 -443.7739,232.259 -561.7035,378.212 z m 134.9385,-82.705 c -58.2894,0 -117.1453,4.92 -174.9294,14.582 l -28.0883,4.7 -192.0211,2455.892 c -0.9542,8.257 -1.612,16.646 -1.9649,25.123 l -0.031,0.659 c 0,0.04 0,0.04 0,0.09 l -1.2679,31.931 72.7584,2.943 1.2417,-31.229 1.673,-21.477 c 25.5265,-213.373 310.3952,-362.488 611.4407,-520.036 193.6376,-101.371 393.8713,-206.169 544.7383,-337.32 176.2975,-153.243 256.4668,-319.839 245.0912,-509.23 l -36.34,2.196 36.34,-2.196 c -18.6209,-310.088 -140.5762,-594.57 -343.3978,-801.047 -199.9331,-203.49 -461.0488,-315.579 -735.2434,-315.579"
         style="fill:#282826;fill-opacity:1;fill-rule:nonzero;stroke:none;stroke-width:0.437445"
         id="path106" /><path
         d="m 9909.8126,13676.174 -191.5507,-2486.945 c -48.8788,-9.224 -128.6908,-9.224 -178.4802,-4.085 -38.9018,3.997 -76.1001,8.785 -111.6994,14.363 -636.1743,99.527 -786.3659,463.595 -757.4543,1071.869 24.8904,524.427 657.0303,701.389 1005.5168,997.73 102.6939,87.316 181.8568,185.614 216.2755,308.331 8.8486,31.185 14.7172,64.038 17.3923,98.737"
         style="fill:#f4d13b;fill-opacity:1;fill-rule:nonzero;stroke:none;stroke-width:0.437445"
         id="path108" /><path
         d="m 9903.4081,13593.03 -185.1462,-2403.801 c -48.8788,-9.224 -128.6908,-9.224 -178.4802,-4.085 -38.9018,3.997 -76.1001,8.785 -111.6994,14.363 39.2808,33.468 78.9799,82.573 108.4318,154.693 88.1553,215.963 100.3978,1858.993 100.3978,1858.993 l 39.2329,55.913 c 102.6939,87.316 181.8568,185.614 216.2755,308.331 l 10.9878,15.593"
         style="fill:#db7b1a;fill-opacity:1;fill-rule:nonzero;stroke:none;stroke-width:0.437445"
         id="path110" /><path
         d="m 9852.5556,13406.933 c -38.2613,-56.748 -88.7216,-111.299 -152.9364,-165.893 -103.0424,-87.625 -226.3265,-162.555 -356.8516,-241.922 -304.3261,-185.043 -619.0172,-376.367 -635.7734,-729.499 -15.3664,-323.352 23.9231,-547.442 123.6587,-705.253 112.1135,-177.357 303.7251,-281.803 603.0104,-328.624 35.0765,-5.446 72.0178,-10.19 109.7911,-14.055 38.6796,-3.997 96.4071,-4.699 140.7723,-0.175 z M 9615.2543,11145 c -29.0031,0 -57.0303,1.361 -79.1716,3.645 -39.0237,3.997 -77.2415,8.872 -113.5815,14.582 -317.0915,49.588 -530.7704,167.914 -653.2572,361.697 -109.6996,173.535 -151.3288,404.301 -134.9777,748.209 8.3781,176.654 82.8182,331.347 227.5726,472.951 125.1968,122.454 286.9209,220.795 443.3209,315.886 127.9851,77.83 248.8729,151.311 347.5107,235.202 110.4751,93.905 175.522,186.141 204.7124,290.236 8.2692,29.12 13.6804,59.865 16.1245,91.533 l 0.01,0.09 72.5929,-5.666 -193.7116,-2515.011 -27.4391,-5.183 c -30.528,-5.754 -70.9895,-8.169 -109.704,-8.169"
         style="fill:#282826;fill-opacity:1;fill-rule:nonzero;stroke:none;stroke-width:0.437445"
         id="path112" /><path
         d="m 9398.1555,11400.405 c -0.7581,-20.204 -39.3636,-36.499 -86.234,-36.499 -46.8703,0 -84.5827,16.295 -84.2341,36.499 0.3529,20.248 38.9671,36.763 86.2426,36.763 47.2756,0 84.9836,-16.515 84.2255,-36.763"
         style="fill:#db7b1a;fill-opacity:1;fill-rule:nonzero;stroke:none;stroke-width:0.437445"
         id="path118" /><path
         d="m 9719.3686,12715.954 c -2.4094,-36.983 -39.1632,-66.806 -82.1038,-66.806 -42.9405,0 -76.2874,29.823 -74.4662,66.806 1.8342,37.289 38.6229,67.727 82.156,67.727 43.533,0 76.8407,-30.438 74.414,-67.727"
         style="fill:#db7b1a;fill-opacity:1;fill-rule:nonzero;stroke:none;stroke-width:0.437445"
         id="path120" /><path
         d="m 9682.1659,11862.639 c -1.8734,-27.934 -43.3936,-50.378 -92.7473,-50.378 -49.3581,0 -88.3078,22.444 -86.9921,50.378 1.3245,28.066 42.8665,50.906 92.7822,50.906 49.9158,0 88.8437,-22.84 86.9572,-50.906"
         style="fill:#db7b1a;fill-opacity:1;fill-rule:nonzero;stroke:none;stroke-width:0.437445"
         id="path122" /><path
         d="m 8617.5231,12876.137 c -15.6496,-22.181 -53.8281,-21.434 -85.4715,1.713 -31.7915,23.234 -45.1363,60.392 -29.6131,82.924 15.593,22.664 54.2682,21.873 86.186,-1.757 31.7698,-23.498 44.6179,-60.612 28.8986,-82.88"
         style="fill:#db7b1a;fill-opacity:1;fill-rule:nonzero;stroke:none;stroke-width:0.437445"
         id="path124" /><path
         d="m 8666.3235,11338.3 c 12.5345,-17.261 0.8017,-42.121 -26.0797,-55.561 -26.7943,-13.44 -58.6773,-10.542 -71.3381,6.5 -12.7087,17.086 -1.2896,42.033 25.6267,55.649 27.0077,13.66 59.2087,10.717 71.7911,-6.588"
         style="fill:#db7b1a;fill-opacity:1;fill-rule:nonzero;stroke:none;stroke-width:0.437445"
         id="path126" /><path
         d="m 9352.431,11515.569 c -14.9264,-16.515 -46.6569,-16.735 -71.007,-0.484 -24.4372,16.295 -32.3143,43.132 -17.4533,59.91 14.922,16.822 46.9923,17.042 71.5036,0.483 24.4111,-16.471 31.944,-43.307 16.9567,-59.909"
         style="fill:#db7b1a;fill-opacity:1;fill-rule:nonzero;stroke:none;stroke-width:0.437445"
         id="path128" /><path
         d="m 9645.5035,11967.437 c -16.3074,-18.359 -49.7066,-18.579 -74.7538,-0.571 -25.1474,18.096 -32.4929,47.787 -16.2552,66.366 16.3032,18.667 50.0857,18.93 75.2984,0.571 25.1126,-18.272 32.0791,-48.007 15.7106,-66.366"
         style="fill:#db7b1a;fill-opacity:1;fill-rule:nonzero;stroke:none;stroke-width:0.437445"
         id="path130" /><path
         d="m 9342.2492,12598.287 c -16.778,-20.951 -42.7358,-28.549 -58.0717,-17.042 -15.3751,11.552 -14.3556,37.993 2.3788,59.119 16.8041,21.214 43.0102,28.988 58.4333,17.261 15.3838,-11.683 14.116,-38.3 -2.7404,-59.338"
         style="fill:#db7b1a;fill-opacity:1;fill-rule:nonzero;stroke:none;stroke-width:0.437445"
         id="path132" /><path
         d="m 9600.2452,12850.047 c -17.7888,-22.049 -44.6266,-30.043 -60.0453,-17.92 -15.4622,12.122 -13.6977,39.969 4.0431,62.237 17.8236,22.356 44.9272,30.482 60.4331,18.14 15.4666,-12.298 13.4363,-40.276 -4.4309,-62.457"
         style="fill:#db7b1a;fill-opacity:1;fill-rule:nonzero;stroke:none;stroke-width:0.437445"
         id="path134" /><path
         d="m 9071.9452,12091.56 c 20.3288,-14.274 20.5597,-45.503 0.6709,-69.66 -19.7798,-24.113 -52.1072,-32.195 -72.3488,-18.228 -20.307,14.012 -20.9213,45.064 -1.2243,69.397 19.8016,24.464 52.5124,32.81 72.9022,18.491"
         style="fill:#db7b1a;fill-opacity:1;fill-rule:nonzero;stroke:none;stroke-width:0.437445"
         id="path136" /><path
         d="m 9150.9164,11447.446 c -5.6029,-6.325 -17.828,-6.413 -27.3258,-0.22 -9.5109,6.237 -12.7044,16.427 -7.1103,22.796 5.6028,6.368 17.8759,6.456 27.3998,0.175 9.5066,-6.237 12.6522,-16.426 7.0363,-22.751"
         style="fill:#db7b1a;fill-opacity:1;fill-rule:nonzero;stroke:none;stroke-width:0.437445"
         id="path138" /><path
         d="m 9410.7248,12513.649 c -6.5177,-7.993 -20.2721,-8.081 -30.7458,-0.219 -10.4868,7.862 -13.737,20.775 -7.228,28.813 6.5178,8.081 20.3332,8.169 30.8374,0.263 10.4824,-7.906 13.6673,-20.819 7.1364,-28.857"
         style="fill:#db7b1a;fill-opacity:1;fill-rule:nonzero;stroke:none;stroke-width:0.437445"
         id="path140" /><path
         d="m 8539.1575,11405.149 c -5.1235,-6.281 -17.2833,-6.369 -27.1776,-0.22 -9.9073,6.193 -13.811,16.295 -8.7005,22.576 5.1236,6.325 17.3313,6.413 27.2517,0.176 9.9073,-6.149 13.7587,-16.251 8.6264,-22.532"
         style="fill:#db7b1a;fill-opacity:1;fill-rule:nonzero;stroke:none;stroke-width:0.437445"
         id="path142" /></g></g></svg>
