<svg width="30" height="30" viewBox="0 0 30 30" fill="none" xmlns="http://www.w3.org/2000/svg">
<path d="M4.84864 22.3711C5.40129 21.062 6.20329 19.873 7.20996 18.8701C8.21358 17.8644 9.40246 17.0625 10.7109 16.5088C10.7227 16.5029 10.7344 16.5 10.7461 16.4941C8.9209 15.1758 7.73438 13.0283 7.73438 10.6055C7.73438 6.5918 10.9863 3.33984 15 3.33984C19.0137 3.33984 22.2656 6.5918 22.2656 10.6055C22.2656 13.0283 21.0791 15.1758 19.2539 16.4971C19.2656 16.5029 19.2773 16.5059 19.2891 16.5117C20.6016 17.0654 21.7793 17.8594 22.79 18.873C23.7958 19.8767 24.5976 21.0655 25.1514 22.374C25.6953 23.655 25.9887 25.0285 26.0156 26.4199C26.0164 26.4512 26.0109 26.4823 25.9995 26.5114C25.9881 26.5405 25.9709 26.5671 25.9491 26.5895C25.9272 26.6118 25.9011 26.6296 25.8723 26.6418C25.8435 26.6539 25.8125 26.6602 25.7813 26.6602H24.0234C23.8945 26.6602 23.792 26.5576 23.7891 26.4316C23.7305 24.1699 22.8223 22.0518 21.2168 20.4463C19.5557 18.7852 17.3496 17.8711 15 17.8711C12.6504 17.8711 10.4443 18.7852 8.78321 20.4463C7.17774 22.0518 6.26954 24.1699 6.21094 26.4316C6.20801 26.5605 6.10547 26.6602 5.97657 26.6602H4.21875C4.18748 26.6602 4.15651 26.6539 4.12769 26.6418C4.09886 26.6296 4.07276 26.6118 4.05092 26.5895C4.02908 26.5671 4.01194 26.5405 4.00051 26.5114C3.98908 26.4823 3.9836 26.4512 3.98438 26.4199C4.01368 25.0195 4.30371 23.6572 4.84864 22.3711ZM15 15.6445C16.3447 15.6445 17.6104 15.1201 18.5625 14.168C19.5147 13.2158 20.0391 11.9502 20.0391 10.6055C20.0391 9.26074 19.5147 7.99512 18.5625 7.04297C17.6104 6.09082 16.3447 5.56641 15 5.56641C13.6553 5.56641 12.3897 6.09082 11.4375 7.04297C10.4854 7.99512 9.96094 9.26074 9.96094 10.6055C9.96094 11.9502 10.4854 13.2158 11.4375 14.168C12.3897 15.1201 13.6553 15.6445 15 15.6445Z" fill="black"/>
</svg>
