<svg width="22" height="22" viewBox="0 0 22 22" fill="none" xmlns="http://www.w3.org/2000/svg">
<path d="M19.3233 6.41672C19.1649 6.14228 18.9381 5.91359 18.665 5.75293C18.3919 5.59228 18.0818 5.50515 17.765 5.50005H6.03165L5.49998 3.42838C5.44626 3.2284 5.32642 3.0525 5.15997 2.92932C4.99351 2.80615 4.79026 2.74296 4.58331 2.75005H2.74998C2.50686 2.75005 2.27371 2.84663 2.1018 3.01853C1.92989 3.19044 1.83331 3.4236 1.83331 3.66672C1.83331 3.90983 1.92989 4.14299 2.1018 4.3149C2.27371 4.48681 2.50686 4.58338 2.74998 4.58338H3.88665L6.41665 13.9884C6.47036 14.1884 6.59021 14.3643 6.75666 14.4874C6.92311 14.6106 7.12636 14.6738 7.33331 14.6667H15.5833C15.7526 14.6662 15.9184 14.6188 16.0624 14.5298C16.2064 14.4408 16.323 14.3137 16.3991 14.1625L19.4058 8.14922C19.5361 7.87606 19.5968 7.5749 19.5824 7.27259C19.568 6.97029 19.479 6.67625 19.3233 6.41672ZM15.015 12.8334H8.02998L6.53581 7.33338H17.765L15.015 12.8334Z" fill="white"/>
<path d="M6.875 19.25C7.63439 19.25 8.25 18.6344 8.25 17.875C8.25 17.1156 7.63439 16.5 6.875 16.5C6.11561 16.5 5.5 17.1156 5.5 17.875C5.5 18.6344 6.11561 19.25 6.875 19.25Z" fill="white"/>
<path d="M16.0417 19.25C16.8011 19.25 17.4167 18.6344 17.4167 17.875C17.4167 17.1156 16.8011 16.5 16.0417 16.5C15.2823 16.5 14.6667 17.1156 14.6667 17.875C14.6667 18.6344 15.2823 19.25 16.0417 19.25Z" fill="white"/>
</svg>
